<?xml version="1.0" standalone="no"?>
<!DOCTYPE svg PUBLIC "-//W3C//DTD SVG 1.1//EN" "http://www.w3.org/Graphics/SVG/1.1/DTD/svg11.dtd" >
<svg xmlns="http://www.w3.org/2000/svg">
<metadata>
This is a custom SVG webfont generated by Font Squirrel.
Copyright   : Copyright c 2010 by Font Diner Inc DBA Sideshow All rights reserved
Designer    : Squid
Foundry     : Font Diner Inc DBA Sideshow
Foundry URL : httpwwwfontbroscomsideshowphp
</metadata>
<defs>
<font id="SlackeyRegular" horiz-adv-x="1508" >
<font-face units-per-em="2048" ascent="1638" descent="-410" />
<missing-glyph horiz-adv-x="824" />
<glyph unicode=" "  horiz-adv-x="824" />
<glyph unicode="&#x09;" horiz-adv-x="824" />
<glyph unicode="&#xa0;" horiz-adv-x="824" />
<glyph unicode="!" horiz-adv-x="650" d="M122 1500l466 38q-2 -52 -5 -114t-7 -126t-11 -125t-17 -113q-30 -150 -61 -296t-61 -296l-220 -20l-50 504q-14 136 -20 273t-14 275zM154 130q0 38 23 69t56 52t72 32t73 11q56 0 101 -26t67 -78q4 -8 5 -15t1 -15q0 -34 -21 -67t-53 -59t-70 -41t-70 -15q-30 0 -63 11 t-60 30t-44 47t-17 64z" />
<glyph unicode="&#x22;" horiz-adv-x="850" d="M72 1512l308 -26q-4 -152 -14 -301t-14 -303l-232 -12q-10 162 -21 321t-27 321zM480 1486l308 26q-16 -162 -26 -321t-22 -321l-232 12q-4 154 -14 303t-14 301z" />
<glyph unicode="#" horiz-adv-x="1386" d="M62 412l40 190l230 18l64 278h-274q2 4 9 33t17 63q10 38 24 84q22 0 40 2q16 0 30 1t18 1q44 0 87 -1t89 -3l76 362l154 -34l-70 -346l374 10l106 318l158 -34l-68 -258l220 -18l-40 -180l-196 -20l-74 -232l186 -10l-42 -154l-200 -18l-104 -310l-180 -10l60 286 l-304 -18l-84 -312l-216 -16l98 328h-228zM520 594l318 8l84 320l-320 -16z" />
<glyph unicode="$" horiz-adv-x="1454" d="M82 984q0 82 54 144t131 104t163 65t152 29v218l288 -32l-6 -186q26 2 51 2h49q90 0 176 -10t176 -32q-12 -66 -26 -132t-26 -132q-92 6 -183 10t-181 4q-22 0 -73 -1t-108 -4t-107 -8t-70 -13q-48 -22 -48 -78q0 -40 28 -72q10 -10 68 -16t140 -12t176 -13t179 -16 t148 -23t83 -34q48 -50 73 -117t25 -135q0 -44 -8 -78q-14 -72 -58 -124t-102 -88t-122 -58t-118 -36t-91 -22t-41 -16q2 -2 2 -1t0 -12t-2 -50t-4 -115l-276 8l6 160q-118 16 -233 33t-229 51q-4 76 -14 151t-14 151q70 -16 144 -32t150 -31t152 -24t148 -9q20 0 66 2t96 7 t94 13t60 18q44 28 44 90q0 18 -5 40t-21 38q-8 6 -65 13t-139 16t-178 18t-183 20t-153 24t-86 29q-30 22 -57 58t-48 79t-34 87t-13 80z" />
<glyph unicode="%" horiz-adv-x="1560" d="M20 1196q0 48 11 99t51 85q20 18 57 29t79 17t81 8t65 2q22 0 56 -2t69 -8t65 -16t46 -26q16 -18 26 -49t16 -66t8 -68t2 -57q0 -20 -2 -49t-6 -60t-13 -59t-21 -44q-18 -22 -62 -36t-97 -23t-102 -13t-75 -4q-16 0 -41 1t-51 5t-48 11t-34 19q-20 22 -35 62t-25 84 t-15 87t-5 71zM186 1188q0 -18 3 -42t10 -49t17 -46t24 -33q16 -14 35 -17t41 -3q34 0 78 12t68 36q18 18 24 47t6 53q0 28 -7 67t-29 61q-16 16 -50 20t-56 4q-10 0 -32 -1t-45 -5t-43 -11t-28 -17q-10 -16 -13 -37t-3 -39zM324 -18q58 124 116 246t116 246q34 70 66 142 t62 144q70 172 135 343t129 347l268 -6q-58 -114 -115 -227t-111 -227q-28 -56 -54 -112t-48 -114q-76 -198 -151 -393t-149 -393zM890 274q0 24 2 61t8 75t16 71t26 51t55 30t84 19t87 9t64 2q20 0 52 -1t65 -6t62 -15t43 -26q18 -20 30 -56t20 -77t12 -80t4 -65 q0 -84 -19 -133t-58 -76t-96 -35t-133 -8q-24 0 -65 2t-84 10t-81 20t-54 34q-12 16 -20 42t-13 53t-6 54t-1 45zM1050 296q0 -46 8 -74t27 -44t49 -21t72 -5q38 0 66 3t46 14t27 34t9 65q0 18 -2 40t-8 44t-15 42t-21 32q-16 16 -40 21t-46 5q-32 0 -73 -10t-63 -32 t-29 -54t-7 -60z" />
<glyph unicode="&#x26;" horiz-adv-x="1718" d="M62 184q0 58 8 117t24 115q10 38 50 97t90 120t97 115t73 82q-16 12 -50 40t-72 61t-70 64t-40 47q-16 30 -16 74q0 34 9 87t25 109t37 104t47 70q28 26 92 39t137 19t141 8t108 4q16 2 34 2h36q50 0 112 -7t124 -24t118 -44t92 -67q10 -10 12 -33t2 -35q0 -50 -12 -106 t-28 -104l-374 -20q2 30 3 59t1 57q0 4 -1 25t-2 45t-4 44t-9 22q-16 6 -31 7t-33 1q-12 0 -40 -1t-60 -4t-59 -7t-35 -8q-20 -10 -24 -40t-4 -48t2 -37t6 -37q8 -40 39 -94t70 -108t80 -102t69 -76q46 -48 102 -96t115 -94t119 -90t114 -82q30 18 72 47t64 59q14 18 28 35 t30 33l214 -192q-46 -58 -95 -105t-107 -95l226 -214l-204 -154l-292 208l-76 -44q-38 -22 -76 -42q-120 -64 -239 -99t-257 -35q-66 0 -133 8t-133 24q-40 8 -68 19t-51 26t-44 37t-45 52q-26 34 -32 78t-6 84zM426 394q0 -48 37 -94t89 -83t110 -60t100 -23q10 0 17 1 t17 5q22 8 57 29t71 46t68 48t50 39q-114 88 -225 176t-225 178q-16 -18 -44 -52t-55 -71t-47 -75t-20 -64z" />
<glyph unicode="'" horiz-adv-x="442" d="M72 1512l308 -26q-4 -152 -14 -301t-14 -303l-232 -12q-10 162 -21 321t-27 321z" />
<glyph unicode="(" horiz-adv-x="702" d="M122 796q0 124 32 247t87 239t128 222t155 196l50 -150q-60 -60 -99 -139t-61 -166t-31 -176t-9 -169q0 -102 19 -231t57 -257t95 -240t131 -178l6 -158q-100 70 -200 180t-180 240t-130 270t-50 270z" />
<glyph unicode=")" horiz-adv-x="706" d="M62 -28q74 64 125 158t82 201t45 217t14 204q0 84 -12 193t-39 219t-69 207t-102 159l8 158q98 -78 183 -187t149 -234t101 -260t37 -263q0 -126 -43 -255t-112 -251t-157 -229t-176 -187z" />
<glyph unicode="*" horiz-adv-x="1076" d="M62 1242l184 164q58 -72 121 -147t143 -127q20 58 34 102t23 86t17 87t20 103q66 -18 130 -39t130 -33q-38 -46 -68 -84t-57 -74t-54 -76t-59 -90l346 140l42 -224q-102 -10 -200 -12t-200 -6q88 -58 165 -123t157 -129l-246 -152q-22 42 -48 100t-50 112q-28 62 -56 128 q-46 -52 -94 -104q-40 -46 -86 -100t-80 -106l-188 182q92 48 169 90t155 110q-84 62 -172 116t-178 106z" />
<glyph unicode="+" horiz-adv-x="1084" d="M62 808q96 0 193 4t193 8l-8 382l172 2q6 -96 14 -188t18 -188q46 2 93 4t93 2t95 -2t97 -4l-6 -146q-96 -10 -187 -14t-185 -10q0 -106 3 -211t7 -211l-178 2q-8 104 -11 207t-9 209h-382z" />
<glyph unicode="," horiz-adv-x="558" d="M82 146q0 40 20 82t48 74l300 -26q46 -134 46 -272q0 -70 -27 -134t-61 -124h-220q42 48 82 100t40 122v22l-190 4q-12 28 -25 75t-13 77z" />
<glyph unicode="-" horiz-adv-x="892" d="M62 636l8 162q182 6 372 6h374l16 -168h-770z" />
<glyph unicode="." horiz-adv-x="500" d="M82 118q0 24 4 62t22 54q6 6 29 9t50 6t53 4t36 1q22 0 63 -3t57 -17q6 -10 11 -31t7 -46t3 -48t1 -35v-26q0 -16 -2 -32t-6 -31t-10 -21q-8 -6 -32 -11t-52 -8t-53 -4t-37 -1t-29 1t-35 3t-33 7t-21 13q-8 8 -13 29t-8 45t-4 46t-1 34z" />
<glyph unicode="/" horiz-adv-x="1008" d="M-40 -54q98 198 197 395t209 391q112 194 224 387t226 387h232q-94 -176 -190 -349t-196 -345q-120 -210 -233 -421t-227 -425z" />
<glyph unicode="0" horiz-adv-x="1458" d="M102 862q0 34 4 107t13 151t23 147t36 95q22 28 68 51t104 41t123 31t127 22t114 13t84 4q34 0 76 -1t85 -5t83 -12t72 -22q26 -12 62 -37t69 -55t60 -62t37 -56q6 -12 8 -59t4 -101t2 -103v-67v-97q0 -61 -2 -136t-6 -154t-12 -150t-21 -125t-31 -78q-24 -28 -55 -61 t-67 -64t-73 -55t-73 -34q-32 -10 -89 -16t-118 -9t-119 -4t-94 -1h-51q-33 0 -69 3t-68 7t-46 14q-44 28 -81 67t-65 85q-26 42 -40 96t-24 104q-10 56 -19 123t-16 137t-11 138t-4 128zM452 714q0 -22 2 -67t5 -102t8 -118t11 -114t13 -90t17 -47q8 -8 23 -12t33 -6t34 -2 h26q22 0 55 2t68 6t66 10t51 16t36 46t27 86t18 107t11 111t6 99t2 69q0 22 -2 69t-5 106t-7 122t-11 119t-15 97t-18 55q-16 22 -48 27t-58 5q-22 0 -63 -4t-85 -13t-82 -21t-54 -28q-24 -24 -37 -95t-19 -155t-7 -162t-1 -116z" />
<glyph unicode="1" horiz-adv-x="852" d="M112 1112q32 96 44 192t28 194l430 12q24 -378 43 -752t41 -752q-122 10 -241 15t-239 7l54 1068z" />
<glyph unicode="2" horiz-adv-x="1332" d="M92 1198q0 22 3 64t12 86t23 82t38 52q36 22 114 38t167 25t171 13t126 4q76 0 143 -4t122 -25t95 -68t60 -131q10 -46 12 -94t2 -94q0 -18 -1 -48t-3 -62t-8 -60t-14 -46q-12 -22 -47 -57t-77 -70t-82 -66t-62 -47q-34 -24 -71 -45t-71 -43q-66 -38 -133 -75t-135 -73 q386 6 774 24q-4 -120 -6 -240t-8 -240l-1046 -38q-10 152 -23 303t-25 305q80 30 164 67t164 83t154 100t132 118q30 34 53 67t23 79q0 108 -43 143t-137 35q-40 0 -81 -1t-77 -7q-58 -10 -71 -38t-13 -82q0 -16 1 -34t3 -36l-310 -42q-12 90 -12 178z" />
<glyph unicode="3" horiz-adv-x="1368" d="M112 1458q236 16 468 30t468 14h120q2 -68 2 -136v-136q0 -64 -1 -126t-3 -126q-182 -86 -358 -182q14 -4 48 -11t77 -17t91 -22t91 -24t75 -23t44 -19q28 -22 43 -54t21 -70t7 -76t1 -70q0 -30 -3 -72t-10 -85t-19 -83t-30 -64q-22 -28 -83 -53t-132 -45t-138 -33 t-101 -19q-108 -16 -228 -20t-230 -4q-52 0 -105 1t-107 3v292q0 96 6 192h79h135q76 0 160 1t155 4t119 6t54 9q10 10 12 17t2 23q0 30 -13 69t-33 65q-4 6 -41 11t-89 9t-113 6t-115 3t-92 2t-46 1q-8 38 -8 84v90l516 258q-172 4 -343 9t-345 5q2 50 3 98t1 96 q0 44 -4 86t-8 86z" />
<glyph unicode="4" horiz-adv-x="1390" d="M92 594q10 218 16 436t16 436l248 22q28 -140 49 -281t39 -283l238 6q4 66 7 132t3 132q0 82 -2 164t-6 164q40 0 78 1t78 1q76 0 153 -4t155 -8l4 -554l132 4q16 -76 21 -157t9 -159l-186 -4q0 -162 5 -321t15 -321l-446 -22q-4 156 -5 314t-5 316z" />
<glyph unicode="5" horiz-adv-x="1410" d="M122 420l462 12q-10 -56 -10 -104q0 -34 14 -51t37 -24t51 -7h56q46 0 78 7t53 25t31 50t10 82q0 40 -14 81t-54 57q-42 20 -102 31t-125 17t-128 7t-107 1q-48 0 -97 -1t-99 -3l-34 876h140q262 0 518 7t516 15l30 -276q-200 -18 -399 -36t-401 -46l8 -248q44 0 123 -5 t164 -15t161 -27t118 -41q70 -42 107 -92t52 -108t16 -124t1 -140v-33q0 -21 -2 -43t-4 -42t-8 -32q-16 -34 -56 -73t-88 -73t-97 -60t-87 -34q-42 -10 -87 -12t-89 -6q-76 -4 -151 -7t-151 -3h-36q-22 0 -46 1t-45 3t-33 6q-64 22 -104 71t-62 113q-6 18 -11 60t-9 90 t-7 92t-3 62z" />
<glyph unicode="6" horiz-adv-x="1420" d="M112 344v56q0 44 2 114t6 153t11 173t16 170t22 145t31 101q42 86 92 134t112 69t135 25t163 4q44 0 127 -1t171 -6t164 -17t106 -36q14 -12 25 -48t19 -85t14 -106t11 -108t7 -90t2 -55l-490 -36q2 36 3 74t1 74v27q0 23 -2 50t-4 49t-6 26q-8 4 -23 7t-31 4t-31 1h-23 q-76 0 -128 -8t-83 -34t-45 -75t-14 -129t4 -159t8 -157q26 26 75 43t104 27t109 14t94 4q26 0 81 -3t114 -12t108 -26t61 -47q12 -26 21 -77t15 -108t10 -110t4 -81q0 -30 -3 -67t-13 -65q-32 -84 -103 -146t-155 -84q-46 -12 -100 -13t-102 -1q-42 0 -105 2t-130 9 t-127 19t-96 32q-106 56 -161 133t-69 195q-4 28 -4 56zM414 348q0 -12 1 -31t3 -39t6 -38t10 -30q8 -12 58 -21t110 -14t114 -7t72 -2h23q15 0 33 1t33 3t23 6q14 8 25 33t17 55t9 59t3 43q0 50 -9 81t-28 47t-52 22t-81 6q-20 0 -71 -5t-106 -13t-104 -19t-63 -25 q-18 -16 -22 -53t-4 -59z" />
<glyph unicode="7" horiz-adv-x="1200" d="M92 1458q268 14 533 28t535 22l30 -314q-144 -314 -304 -614t-318 -602h-454q70 102 140 206t140 212q40 64 81 128t81 132q76 136 144 278t132 286q-22 2 -41 2h-41q-58 0 -128 -6t-124 -26l6 -176l-374 -20q-16 114 -22 230t-16 234z" />
<glyph unicode="8" horiz-adv-x="1440" d="M134 380q0 30 2 70t9 80t21 76t38 58q10 8 31 17t45 18t45 17t33 12q-16 4 -40 13t-48 21t-44 28t-26 34q-10 28 -19 66t-17 79t-12 80t-4 69v60q0 40 3 82t8 78t17 52q30 40 65 64t74 37t82 17t89 6q74 2 146 3t146 1h61h81q42 0 80 -2t56 -6q34 -8 71 -46t70 -86 t56 -97t27 -81q8 -48 8 -97v-97v-34q0 -22 -1 -45t-3 -44t-6 -31q-4 -8 -29 -28t-56 -42t-58 -41t-33 -23q20 -10 48 -26t56 -37t50 -45t28 -48q8 -34 14 -76t10 -87t6 -89t2 -78q0 -32 -3 -76t-19 -72q-10 -16 -27 -38t-39 -43t-44 -37t-40 -22q-8 -2 -33 -4t-62 -3t-82 -1 h-89h-236q-60 -2 -118 -2h-106q-56 0 -98 4q-34 2 -63 40t-51 88t-37 100t-21 78q-10 36 -12 68t-2 68zM412 400q0 -18 6 -55t16 -76t24 -70t32 -39q4 -2 14 -3t22 -1h22h16q14 0 64 1t104 3t100 6t54 8q16 8 28 44t20 78t12 82t4 56q0 20 -2 45t-8 49t-17 45t-29 33 q-14 10 -49 11t-55 1t-68 -2t-101 -7t-99 -13t-60 -20q-12 -10 -21 -33t-15 -50t-10 -53t-4 -40zM416 1120q0 -16 2 -54t6 -78t11 -75t17 -45t29 -15t41 -8t42 -3h34q28 0 73 -1t91 2t87 13t59 30q6 8 10 27t6 40t3 41t1 30q0 18 -2 64t-8 95t-15 91t-23 54q-6 6 -22 9 t-33 4l-34 2q-17 1 -25 1q-14 0 -59 -2t-95 -6t-92 -10t-52 -14q-12 -10 -21 -35t-16 -55t-11 -59t-4 -43z" />
<glyph unicode="9" horiz-adv-x="1432" d="M92 1010q0 32 6 103t17 148t28 141t39 84q16 14 59 26t102 23t126 19t128 14t111 9t74 3q22 0 64 -2t93 -8t105 -15t102 -21t83 -29t47 -39q6 -12 11 -61t9 -118t6 -148t3 -151t2 -127t1 -75v-78q0 -56 -2 -129t-5 -152t-9 -149t-16 -120t-24 -64q-40 -38 -113 -63 t-157 -41t-165 -23t-135 -7q-112 0 -221 7t-219 19q-18 98 -18 200v186q114 -12 232 -23t236 -11q32 0 75 2t81 13t64 35t26 66q0 38 -4 74t-10 74q-56 -22 -115 -31t-117 -9q-18 0 -59 1t-94 4t-110 7t-107 10t-85 14t-45 18q-22 26 -40 79t-31 113t-21 116t-8 86z M476 1106q0 -22 2 -73t10 -105t21 -98t35 -54q16 -6 39 -7t39 -1q26 0 79 4t109 11t105 18t69 25q12 8 18 27t9 42t4 45t1 34q0 24 -4 76t-12 108t-20 104t-28 66q-10 12 -30 18t-43 9t-46 4t-37 1q-20 0 -62 -3t-87 -9t-84 -16t-53 -24q-12 -12 -19 -40t-10 -58t-4 -59 t-1 -45z" />
<glyph unicode=":" horiz-adv-x="502" d="M82 690q0 12 1 28t3 32t7 30t15 22q6 6 29 11t50 7t53 3t36 1q22 0 63 -3t57 -19q6 -8 11 -29t7 -46t3 -48t1 -35v-26q0 -16 -2 -33t-6 -31t-10 -20q-8 -6 -32 -11t-52 -7t-53 -3t-37 -1h-29q-17 0 -35 2t-33 7t-21 13q-8 10 -13 31t-8 44t-4 46t-1 35zM84 136q0 12 1 28 t3 32t7 30t15 22q6 6 29 10t51 6t54 3t36 1q22 0 62 -2t56 -18q6 -8 11 -29t7 -46t3 -49t1 -36v-25q0 -15 -2 -32t-6 -31t-10 -20q-8 -6 -32 -11t-52 -8t-53 -4t-37 -1h-27q-17 0 -35 3t-34 7t-22 14q-6 8 -11 29t-8 45t-5 47t-2 35z" />
<glyph unicode=";" horiz-adv-x="582" d="M82 700q0 24 4 61t22 53q6 6 29 10t50 6t53 3t36 1h27q17 0 35 -2t34 -6t24 -12q6 -8 11 -30t7 -47t3 -48t1 -35q0 -20 -2 -58t-16 -52q-8 -6 -32 -11t-52 -7t-53 -3t-37 -1h-29q-17 0 -35 2t-33 7t-21 13q-8 10 -13 31t-8 44t-4 46t-1 35zM84 146q0 40 20 82t48 74 l300 -26q22 -66 35 -134t13 -138t-28 -134t-62 -124h-218q20 24 42 49t40 52t29 57t11 64q0 4 -1 10t-1 12l-190 4q-12 28 -25 75t-13 77z" />
<glyph unicode="&#x3c;" horiz-adv-x="710" d="M20 546q70 58 144 116t140 122q78 78 156 155t156 153v-232q-84 -90 -176 -175t-176 -177q44 -36 89 -70t91 -66q54 -34 106 -78t100 -88l-34 -204q-146 138 -296 271t-300 273z" />
<glyph unicode="=" horiz-adv-x="908" d="M62 776l8 162q182 6 372 6h374l16 -168h-770zM76 628l770 6l-6 -160q-188 -10 -374 -11t-374 -3z" />
<glyph unicode="&#x3e;" horiz-adv-x="710" d="M62 206q46 44 98 88t106 78q48 32 93 66t87 70q-84 92 -176 177t-176 175v232q78 -76 157 -153t157 -155q64 -64 138 -122t144 -116q-148 -140 -299 -273t-297 -271z" />
<glyph unicode="?" horiz-adv-x="1304" d="M20 1562q136 4 271 8t273 4h99q69 0 146 -3t145 -8t96 -13q52 -16 102 -53t72 -87q8 -18 14 -82t9 -138t5 -142t2 -92v-47q0 -33 -2 -71t-4 -70t-8 -44q-24 -44 -79 -77t-103 -43q-26 -6 -52 -8t-54 -4q-60 -4 -121 -7t-121 -7q-6 -60 -6 -118q0 -28 8 -61t18 -59 l-388 -8v492l38 -2q10 -2 42 -1t74 2t88 3t87 6t71 9t38 13q34 26 44 61t10 75q0 130 -73 200t-201 70q-46 0 -112 -18t-135 -43t-133 -53t-102 -46q-16 116 -30 232t-28 230zM328 102q0 38 23 69t57 53t74 33t74 11q54 0 99 -25t67 -77q8 -14 8 -32q0 -36 -22 -68t-55 -58 t-70 -41t-69 -15q-30 0 -63 11t-60 30t-45 47t-18 62z" />
<glyph unicode="@" horiz-adv-x="1694" d="M40 782q0 108 32 202t87 176t129 151t158 127q86 58 179 77t197 19q76 0 174 -13t194 -41t176 -73t122 -109q32 -48 61 -122t52 -155t37 -160t14 -137q0 -104 -26 -192t-77 -153t-127 -102t-174 -37q-24 0 -38 2t-32 16q-8 6 -32 36t-51 66t-51 67t-30 41q-2 -10 -8 -29 t-13 -39t-15 -38t-14 -26q-16 -20 -44 -34t-60 -23t-64 -13t-54 -4q-56 0 -98 14q-44 14 -78 60t-58 103t-36 116t-12 101q0 16 3 33t15 33q14 20 76 37t137 30t145 20t98 7q16 0 30 -14t24 -33t17 -39t9 -32q8 40 8 86q0 44 -4 72t-19 42t-42 19t-71 5q-88 0 -175 -15 t-173 -35l-14 236q74 10 149 15t151 5q30 0 84 -3t112 -12t108 -26t72 -43q12 -16 19 -64t11 -104t5 -106t1 -70q0 -66 -2 -132t-6 -132l128 -12q14 16 29 34t27 36q14 22 23 65t15 92t8 96t2 77q0 48 -8 108t-25 119t-44 112t-65 89q-80 76 -174 97t-202 21q-76 0 -138 -12 t-120 -34t-113 -57t-115 -79q-102 -78 -155 -186t-53 -238q0 -124 37 -241t109 -208t177 -146t241 -55q24 0 59 4t71 11t68 20t50 31l186 -94q-38 -54 -89 -86t-108 -50t-119 -23t-122 -5q-184 0 -327 71t-241 190t-149 274t-51 325zM664 490q0 -54 36 -94t92 -40 q32 0 57 14t43 36t27 50t9 58q0 48 -35 84t-85 36q-64 0 -104 -39t-40 -105z" />
<glyph unicode="A" d="M154 82q28 340 58 676t58 674q144 24 287 40t289 16q178 0 356 -6q32 -208 63 -415t65 -415q24 -164 53 -324t63 -322l-304 -46q-32 102 -64 203t-62 203l-492 -18l-62 -266h-308zM562 628l384 10q-2 18 -10 67t-18 104t-23 100t-25 53q-4 2 -19 4t-32 4t-33 2h-22h-27 q-17 0 -36 -1t-36 -5t-23 -10q-4 -2 -10 -26t-15 -59t-18 -75t-17 -76t-13 -62t-7 -30z" />
<glyph unicode="B" horiz-adv-x="1746" d="M62 1544l328 -8l328 -8q70 -2 178 -13t221 -29t214 -44t159 -58q44 -24 73 -72t47 -105t26 -115t8 -102q0 -34 -4 -64t-14 -62q-12 -34 -46 -65t-76 -58t-86 -46t-74 -29q10 -2 40 -7t63 -13t61 -19t36 -23q14 -24 23 -59t13 -74t6 -76t2 -65v-21q0 -11 -2 -21 q-4 -20 -28 -53t-56 -67t-63 -63t-47 -41q-22 -16 -43 -28t-45 -22q-18 -8 -77 -12t-125 -7t-124 -4t-78 -1q-160 0 -316 5t-316 13q4 142 6 283t2 285q0 162 -10 322t-22 320l-154 14q-10 80 -15 157t-13 155zM540 1198q12 -98 22 -196t24 -196q24 0 94 4t149 10t147 15 t88 21q34 22 41 64t7 78q0 20 -2 51t-8 63t-16 60t-24 46q-4 6 -22 10t-39 6t-41 2h-26q-100 0 -198 -11t-196 -27zM568 536l32 -254q10 0 47 2t86 5t104 7t103 10t82 13t42 17q18 22 25 46t7 52q0 30 -8 61t-32 51q-6 6 -28 10t-46 5t-46 2t-30 1q-86 0 -170 -9t-168 -19z " />
<glyph unicode="C" horiz-adv-x="1474" d="M62 698q0 80 9 166t29 170t53 162t81 144q14 18 36 44t44 38q54 30 121 50t139 31t143 16t131 5q114 0 228 -13t222 -45q-4 -54 -6 -109t-2 -109q0 -130 6 -262q-90 34 -188 49t-194 15q-20 0 -58 -3t-86 -8t-99 -13t-95 -20t-77 -28t-43 -34q-8 -16 -13 -45t-8 -61 t-4 -62t-1 -48t4 -72t10 -115t15 -111t19 -58q10 -6 33 -7t31 -1q98 0 210 10t227 27t227 36t208 37l-2 -312q-92 -18 -182 -34t-182 -28q-96 -12 -192 -22t-192 -10q-28 0 -82 2t-112 8t-110 15t-76 23q-22 14 -42 33t-36 39q-42 52 -70 114t-44 128t-23 134t-7 134z" />
<glyph unicode="D" horiz-adv-x="1710" d="M154 1456q168 -6 334 -13t336 -19q44 -4 129 -10t177 -17t173 -27t117 -40q46 -34 82 -92t52 -114q8 -26 12 -81t6 -117t3 -120t1 -88v-122q0 -64 -14 -122q-10 -44 -22 -77t-30 -60t-44 -50t-64 -45q-12 -8 -64 -21t-129 -31t-172 -38t-194 -39t-196 -38t-176 -34 t-134 -26t-73 -13q-34 366 -64 726t-46 728zM510 1068q16 -156 29 -307t23 -307q38 2 109 11t145 24t138 38t92 55q22 24 27 51t5 59q0 22 -1 47t-3 47q-4 32 -11 67t-19 68t-30 62t-44 51q-14 12 -68 19t-118 10t-120 4t-72 1h-82z" />
<glyph unicode="E" horiz-adv-x="1312" d="M122 -16q6 234 14 466t8 468v38q0 136 -4 271t-8 273q105 -1 210 -1h105q157 1 317 1q122 0 243 -5t243 -11l22 -266q-196 -10 -389 -21t-389 -27l-4 -158l516 30q10 -68 15 -134t5 -134q0 -28 -1 -58t-1 -58l-480 -86l30 -248q152 10 303 29t305 33q14 -100 28 -201 t40 -197q-114 1 -227 1q-169 0 -337 -2q-280 -3 -564 -3z" />
<glyph unicode="F" horiz-adv-x="1348" d="M144 -54q10 234 12 465t2 465v178v402q116 2 229 5t229 3q156 0 312 -7t314 -15q12 -96 23 -193t11 -195q-174 -10 -343 -16t-341 -22l16 -172l332 -22l56 -200q-90 -20 -181 -31t-181 -29q20 -150 28 -299t8 -299z" />
<glyph unicode="G" horiz-adv-x="1582" d="M112 886q0 26 1 63t4 77t9 76t16 60q48 104 141 167t205 98t231 46t219 11q214 0 428 -42l16 -428q-204 64 -422 64q-40 0 -106 -4t-135 -15t-129 -32t-84 -57q-12 -18 -21 -50t-14 -67t-7 -69t-2 -56q0 -46 7 -109t17 -129t24 -126t30 -98h354l-18 386q125 -9 252 -9h25 q139 1 277 1q14 -170 16 -338t2 -338q-242 4 -495 12t-495 36q-28 4 -63 7t-63 13q-58 22 -91 49t-51 62t-26 78t-14 97q-18 140 -28 281t-10 283z" />
<glyph unicode="H" horiz-adv-x="1554" d="M154 -24q4 186 10 368t10 368q4 182 5 360t3 358h334q16 -150 22 -299t18 -299q96 2 190 2t192 2l20 648q28 2 55 2h55q80 0 157 -4t155 -18q8 -305 8 -608v-121q-1 -121 -1 -242q0 -243 3 -487l-398 -10q-4 130 -6 258t-6 258l-376 -18q-2 -20 -2 -39v-37q0 -112 9 -223 t19 -221q-40 -2 -81 -3t-81 -1q-78 0 -157 3t-157 3z" />
<glyph unicode="I" horiz-adv-x="1042" d="M52 1422q218 8 433 19t435 27q-8 -102 -8 -203v-40q1 -40 1 -81q0 -80 -3 -160l-222 8q-2 -70 -3 -138t-1 -138q0 -84 1 -165t3 -165l204 -4q-4 -58 -4 -118v-120q0 -50 3 -100t13 -98l-718 -12q0 98 -2 193t-8 193l130 2q-10 188 -23 372t-27 370l-190 24q-4 84 -7 167 t-7 167z" />
<glyph unicode="J" horiz-adv-x="1256" d="M20 444q62 -10 112 -20t98 -18t98 -13t114 -5q40 0 89 5t81 31q20 16 32 52t17 78t6 82t1 64q0 150 -16 300t-40 298q-10 58 -18 116t-26 112q22 -2 45 -2h49q100 0 198 5t198 19q22 -186 31 -367t19 -367q2 -32 3 -62t1 -62q0 -48 -4 -116t-14 -140t-27 -138t-43 -110 q-44 -76 -109 -119t-140 -64t-157 -27t-162 -6q-68 0 -119 4t-98 14t-96 30t-109 50q-8 94 -9 187t-5 189z" />
<glyph unicode="K" horiz-adv-x="1594" d="M112 1466q150 -4 297 -5t297 -5l-12 -464q108 112 204 228t198 236q96 6 194 13t194 15l-8 -148l-424 -442q152 -226 307 -444t317 -440q-96 -22 -191 -41t-193 -35q-120 182 -237 359t-243 353l-214 -208l-20 -444q-46 2 -91 3t-89 1q-42 0 -82 -2t-80 -8 q-24 184 -45 367t-37 369t-25 371t-17 371z" />
<glyph unicode="L" horiz-adv-x="1146" d="M122 1506q134 2 264 8t262 16q-22 -148 -41 -297t-29 -299q-8 -126 -13 -251t-9 -251q132 -4 261 -4t259 -4l30 -374q-238 -18 -473 -34t-473 -30q-10 382 -16 759t-22 761z" />
<glyph unicode="M" horiz-adv-x="1996" d="M154 -92q10 186 20 370t10 370q0 218 -3 434t-5 434q144 0 281 8t281 22q48 -160 99 -317t109 -313q62 148 141 290t161 282q136 4 269 8t269 6q6 -180 15 -356t17 -356q6 -142 11 -284t9 -282l4 -168v-90q-38 2 -74 6q-30 4 -59 6t-43 2q-78 0 -156 -3t-154 -11 q2 84 3 165t1 165q0 150 -5 298t-9 296l-420 -950q-92 250 -197 491t-219 481l32 -988q-22 0 -45 1t-47 1q-76 0 -149 -6t-147 -12z" />
<glyph unicode="N" horiz-adv-x="1866" d="M154 1548l782 4q40 -100 75 -201t67 -205q46 -158 104 -313t116 -311q-2 250 -9 498t-11 500l404 -48q8 -208 14 -414t6 -414q0 -176 -1 -347t-3 -347q-124 6 -246 6q-60 0 -121 -6t-121 -16q-76 166 -152 329t-152 329q-56 122 -106 244t-100 246q-18 -270 -37 -537 t-31 -537l-432 12q-10 384 -18 764t-28 764z" />
<glyph unicode="O" horiz-adv-x="1912" d="M122 784q0 38 6 99t16 132t24 145t31 138t37 111t44 63q20 14 74 26t126 21t154 16t156 12t134 7t88 2q38 0 103 -4t141 -13t154 -22t145 -31t115 -40t60 -48q10 -22 19 -63t15 -93t11 -110t8 -111t5 -97t2 -70v-51q0 -25 -2 -49q-2 -20 -5 -70t-8 -115t-12 -137 t-16 -133t-19 -105t-20 -54q-60 -60 -143 -89t-173 -39q-75 -8 -150 -8h-30q-90 2 -168 2q-26 0 -88 1t-141 3t-165 7t-161 14t-130 22t-69 33q-16 22 -28 48t-22 50q-26 66 -48 141t-37 154t-24 157t-9 148zM544 666q0 -16 1 -48t5 -66t9 -64t15 -44q6 -10 36 -18t73 -15 t91 -11t93 -7t80 -4t49 -1q24 0 83 4t124 13t120 22t71 31q12 14 20 59t12 98t5 102t1 71q0 40 -4 85t-26 79q-16 24 -77 38t-134 20t-141 7t-96 1q-22 0 -77 -4t-116 -13t-113 -22t-64 -31q-12 -14 -19 -53t-12 -84t-7 -86t-2 -59z" />
<glyph unicode="P" horiz-adv-x="1718" d="M184 1442q206 14 415 35t417 21q36 0 114 -7t164 -22t159 -37t97 -50q16 -18 27 -70t17 -111t9 -115t3 -82q0 -44 -5 -106t-16 -126t-31 -120t-50 -88q-12 -14 -77 -27t-156 -26t-195 -25t-197 -21t-161 -15t-86 -6l-16 -416q-35 -2 -70 -2q-26 0 -52 1q-60 3 -122 3 q-40 0 -80 -2t-80 -6v372q0 184 -8 372q-6 170 -11 338t-9 338zM542 1194q6 -60 7 -118t1 -116q0 -94 6 -190q26 0 90 3t134 10t132 20t84 35q36 34 43 83t7 97q0 18 -2 46t-7 55t-15 50t-26 33q-10 6 -32 10t-46 6t-46 3t-32 1q-74 0 -148 -8t-150 -20z" />
<glyph unicode="Q" horiz-adv-x="1948" d="M144 831v101q0 38 1 98t7 124t20 120t42 86q16 18 71 35t131 32t164 27t172 22t155 15t111 7q58 2 116 3t116 1q76 0 161 -3t162 -26t136 -73t83 -142q4 -18 7 -48t4 -64t1 -66v-50q0 -34 -1 -102t-5 -153t-11 -176t-19 -171t-29 -140t-41 -80q-18 -16 -47 -32t-60 -30 t-61 -25t-54 -17q38 -90 74 -177t72 -177l-296 -70q-58 84 -109 168t-109 166q-16 -2 -32 -2h-32q-34 0 -101 4t-150 12t-173 20t-167 26t-133 32t-72 38q-28 34 -47 113t-31 170t-18 176t-6 129q-2 50 -2 99zM500 858q0 -40 6 -100t16 -124t21 -124t21 -98q48 -18 86 -29 t74 -17t75 -9t91 -5l-124 200q52 26 98 50t92 44t95 36t107 30l134 -274q42 114 61 235t19 241v26q0 16 -2 32t-7 30t-13 22q-10 8 -28 14t-39 8t-42 3t-33 1q-28 0 -87 -4t-132 -12t-153 -19t-148 -25t-117 -30t-61 -34q-8 -12 -9 -32t-1 -36z" />
<glyph unicode="R" horiz-adv-x="1678" d="M144 70q14 184 26 367t14 365q6 324 18 648q188 10 375 22t375 12q48 0 104 -2t113 -11t110 -25t95 -42q102 -64 157 -171t55 -227q0 -164 -100 -258t-264 -102q198 -330 346 -676l-584 -14q-16 162 -48 298t-90 286q-66 -4 -131 -10t-129 -10l10 -454q-114 -6 -228 -6 q-58 0 -113 2t-111 8zM600 1226l54 -388q44 -10 92 -14t94 -4q20 0 59 2t80 8t76 17t49 29q6 8 10 31t5 48t2 49t1 34q0 16 -1 44t-5 57t-12 54t-22 37q-10 8 -34 12t-51 7t-52 4t-35 1q-80 0 -157 -8t-153 -20z" />
<glyph unicode="S" horiz-adv-x="1710" d="M122 1076q0 72 14 137t45 121t79 99t118 71q120 46 257 64t263 18q148 0 292 -18t288 -46q-2 -58 -3 -115t-1 -115t6 -117t12 -117q-190 -4 -379 -7t-381 -11q-24 0 -65 -2t-79 -5t-66 -5l-28 -2q-10 -22 -12 -45t-2 -47q0 -12 1 -30t9 -28q2 -2 34 -6t71 -8t74 -8t43 -4 q66 -6 155 -14t182 -18t179 -25t150 -35q58 -20 107 -63t85 -100t57 -120t21 -123q0 -96 -46 -155t-130 -95q-70 -30 -176 -47t-220 -24t-224 -9t-184 -2q-126 0 -249 4t-249 12q2 51 2 102q0 152 -14 302q150 -4 299 -7t299 -7q58 -2 117 -4t119 -2h30q20 0 42 2t41 6 t29 12q8 8 10 23t2 27q0 22 -6 53t-18 51q-2 2 -13 4t-25 3t-26 2t-14 1q-128 10 -255 14t-255 14q-58 6 -119 12t-113 22q-50 14 -85 63t-56 112t-30 127t-9 108z" />
<glyph unicode="T" horiz-adv-x="1370" d="M82 1532q300 -6 596 -17t594 -19q8 -86 12 -167t4 -165v-140l-386 -20q-8 -116 -12 -230t-4 -228q0 -140 -7 -279t-17 -277q-72 -4 -144 -7t-144 -3q-26 0 -51 1t-49 1q4 122 7 243t3 241t-6 241t-14 243q-58 -2 -117 -4t-119 -2h-67q-33 0 -67 2q-6 148 -8 294z" />
<glyph unicode="U" horiz-adv-x="1780" d="M154 634q0 206 15 408t33 406l412 10q-20 -128 -28 -271t-8 -275q0 -22 2 -77t8 -117t15 -114t23 -68q6 -6 31 -11t60 -9t75 -6t76 -3t64 -2t40 -1h34q24 0 49 1t47 3t30 8q24 16 36 78t18 136t6 142v98q0 46 1 92t1 92q0 94 -2 185t-6 185q42 -4 83 -5t83 -1q50 0 99 2 t97 12q42 -214 65 -433t23 -439q0 -114 -5 -226t-21 -226q-32 -24 -64 -45t-66 -45q-28 -18 -61 -41t-69 -45t-73 -39t-69 -23q-27 -7 -69 -7h-11q-50 1 -84 1q-84 -4 -168 -6t-172 -2q-40 0 -92 -1h-9q-46 0 -85 9q-12 2 -40 19t-63 42t-73 54t-73 56t-60 48t-35 29 q-10 106 -15 211t-5 211z" />
<glyph unicode="V" horiz-adv-x="1424" d="M0 1498q70 -8 141 -14t141 -6h30q14 0 30 4q80 -252 166 -495t176 -491q60 144 117 289t115 291q4 10 18 50t33 93t40 112t38 109t28 83l11 33q22 -4 43 -4h43q58 -2 112 -2h110q-80 -390 -165 -772t-175 -768l-640 -10q-50 216 -101 431t-115 429q-46 162 -95 320 t-101 318z" />
<glyph unicode="W" horiz-adv-x="1932" d="M0 1580h580q8 -66 14 -132t12 -130q16 -174 36 -345t40 -345q34 122 69 242t77 240q36 108 70 213t66 213h98q66 -242 148 -475t178 -465q50 218 87 438t77 440l308 -16q-42 -374 -104 -727t-146 -721q-22 -2 -46 -2h-46q-52 0 -103 2t-103 12q-64 134 -134 265t-132 269 q-28 -68 -63 -132t-75 -128q-52 -78 -100 -158t-94 -162l-326 8q-46 180 -87 356t-81 356q-52 224 -107 443t-113 441z" />
<glyph unicode="X" horiz-adv-x="1522" d="M-52 1484q144 -8 284 -10t282 -10q60 -102 125 -201t129 -199q74 106 147 211t139 215q40 -3 79 -3h20q49 1 99 1q174 0 352 12q-154 -190 -305 -377t-313 -371q114 -186 240 -366q68 -96 140 -189t146 -187l-504 -16q-66 114 -136 223t-136 223q-76 -112 -146 -223 t-138 -227q-44 8 -90 9t-92 1q-76 0 -153 -3t-153 -7l524 676q-46 76 -91 150t-91 148q-86 132 -177 261t-181 259z" />
<glyph unicode="Y" horiz-adv-x="1648" d="M144 1540q96 -10 193 -18t193 -14q0 -94 5 -199t25 -195q10 -48 38 -83t67 -58t84 -34t91 -11q54 0 108 11t104 27q-8 150 -13 296t-19 294q60 2 120 5t120 3q94 0 190 -18q0 -86 3 -172t7 -172q4 -40 7 -81t5 -81q8 -136 26 -271t18 -271q0 -72 -22 -151t-64 -148 t-103 -120t-137 -67q-30 -6 -71 -10t-85 -6t-87 -4t-73 -2q-172 -8 -344 -9t-346 -1q-8 82 -15 162t-19 164q138 6 275 13t275 17q30 2 67 2t76 2t76 5t65 9q12 2 29 7t31 14t24 21t10 30q0 42 -9 93t-13 91q-150 -14 -301 -27t-303 -13q-104 0 -166 59t-90 155 q-6 22 -11 53t-8 64t-5 65t-4 54q-10 132 -15 260t-9 260z" />
<glyph unicode="Z" horiz-adv-x="1564" d="M92 1466h692q158 0 314 -3t314 -7q22 -116 30 -231t20 -231q-98 -84 -199 -162t-209 -148l-484 -322q212 8 423 18t425 10l-6 -330q-282 -34 -564 -48q-176 -10 -349 -22t-345 -26q-12 96 -18 191t-28 191q224 212 448 418t460 408q-73 -1 -145 -1h-72q-107 1 -215 1 q-120 0 -238 -5t-238 -11z" />
<glyph unicode="[" horiz-adv-x="620" d="M122 926q0 182 14 375t30 375l402 -36l12 -178l-228 -34q4 -150 8 -297t4 -297v-712l192 -34l6 -164q-46 -10 -93 -19t-93 -9q-52 0 -105 5t-105 9q-16 256 -30 508t-14 508z" />
<glyph unicode="\" horiz-adv-x="1008" d="M-40 1506h232q114 -194 226 -387t224 -387q110 -194 210 -391t196 -395l-244 20q-112 214 -224 425t-234 421q-102 172 -196 345t-190 349z" />
<glyph unicode="]" horiz-adv-x="614" d="M40 96l228 40q-4 148 -10 296t-8 298l-8 710l-192 32l-10 164q44 10 92 20t94 10q52 0 105 -4t105 -8q24 -316 42 -640q4 -102 9 -203t5 -203q0 -180 -10 -358t-26 -358l-400 26z" />
<glyph unicode="^" horiz-adv-x="1014" d="M40 702q120 210 240 416t240 414q118 -194 228 -390t224 -392l-210 -36q-58 126 -114 249t-124 245q-26 -52 -53 -102t-55 -102q-42 -72 -75 -152t-67 -156z" />
<glyph unicode="_" horiz-adv-x="1160" d="M0 254q158 4 317 8t317 4q130 0 257 -2t255 -4l14 -228q-136 -4 -269 -6t-267 -2q-154 0 -308 -9t-308 -21z" />
<glyph unicode="`" horiz-adv-x="1914" d="M726 1528l144 198q46 -48 94 -96t92 -102q32 -40 65 -76t67 -72l-72 -112q-58 32 -107 60t-95 58t-92 65t-96 77z" />
<glyph unicode="a" horiz-adv-x="1622" d="M62 970q8 76 13 154q3 43 3 86q0 34 -2 68q146 26 293 37t297 11q54 0 118 -1t128 -4t127 -9t117 -16q56 -10 111 -36t103 -64t84 -87t52 -105q2 -6 3 -20t1 -31v-31v-20q0 -168 -12 -334l-24 -332q-224 -20 -446 -34t-446 -14q-20 0 -74 1t-114 4t-114 8t-72 15 q-66 36 -92 91t-26 125q0 24 2 64t8 84t16 82t24 56q18 24 82 41t153 27t192 16t197 9t168 3h106q6 44 6 86v21q0 17 -2 21q-6 12 -38 20t-79 12t-102 7t-107 3h-92h-58q-126 0 -252 -5t-252 -9zM456 590q0 -14 2 -38t7 -50t11 -48t16 -32q8 -10 27 -15t41 -8t44 -4t34 -1 q48 0 103 4t112 9t111 12t100 13v256q-58 2 -116 3t-116 1q-12 0 -67 -1t-118 -5t-115 -10t-60 -18q-10 -16 -13 -33t-3 -35z" />
<glyph unicode="b" horiz-adv-x="1724" d="M92 1478l340 -14q-2 -26 -2 -53v-55q0 -132 5 -263t5 -263q32 58 88 110t118 68q56 14 128 26t147 21t149 13t132 4q42 0 93 -11t101 -31t91 -49t65 -67q20 -34 39 -101t32 -142t21 -145t8 -110q0 -108 -48 -196t-156 -122q-16 -4 -66 -7t-108 -4t-110 -1h-68 q-142 0 -283 2t-281 6l-10 -86q-102 0 -206 -4t-208 -10q2 154 3 306t1 306q0 220 -7 437t-13 435zM566 728l24 -334q52 0 133 1t168 6t168 15t129 30q34 14 39 38t5 58q0 20 -5 52t-14 65t-21 62t-28 43q-8 8 -26 11t-37 5t-38 2h-29q-18 0 -56 -2t-86 -5t-101 -8t-99 -11 t-80 -13t-46 -15z" />
<glyph unicode="c" horiz-adv-x="1444" d="M52 772q0 78 2 146t22 125t65 102t129 79q38 16 114 25t159 14t159 7t118 2q140 0 279 -6t279 -16q6 -50 10 -99t4 -97q0 -92 -24 -178q-14 -2 -83 -5t-164 -8t-204 -12t-202 -15t-158 -17t-73 -17q-32 -28 -48 -68t-16 -80q0 -24 5 -37t17 -29q6 -6 42 -10t80 -6t82 -3 t44 -1q144 0 288 6t288 16l16 -344q-200 -16 -401 -31t-403 -15h-29q-19 0 -41 1t-42 3t-28 4q-42 12 -83 27t-77 38t-63 55t-39 78q-8 30 -13 79t-7 101t-3 102t-1 84z" />
<glyph unicode="d" horiz-adv-x="1588" d="M30 464v32q4 74 12 132t29 106t58 89t101 83q44 30 104 50t125 34t128 20t115 6q96 0 191 -14t189 -42q-10 132 -17 261t-21 259q108 10 214 22l212 24q2 -104 3 -207t1 -207v-166q0 -82 -4 -166q-4 -184 -16 -365t-26 -363q-182 -12 -360 -20t-360 -8q-24 0 -76 1 t-111 3t-111 7t-76 15q-154 56 -229 151t-75 263zM478 530q0 -16 2 -43t7 -56t13 -54t18 -37q6 -6 21 -10t33 -6t35 -2h27q114 0 226 10t226 26q16 4 38 5t40 7v4q0 2 2 4q3 26 3 51v13q-1 32 -1 66v92q0 46 -2 92q-126 6 -252 6q-18 0 -76 -1t-123 -4t-121 -10t-72 -17 q-30 -22 -37 -62t-7 -74z" />
<glyph unicode="e" horiz-adv-x="1514" d="M52 756q0 106 23 197t85 177q42 60 124 100t178 63t192 32t166 9q62 0 152 -11t179 -37t161 -67t98 -101q4 -12 9 -41t11 -66t11 -79t9 -80t7 -68t5 -42q-262 -14 -522 -23t-522 -19q-2 -8 -2 -16v-16q0 -68 31 -104t77 -51t102 -17t104 -2q134 0 268 9t270 19l16 -318 q-132 -6 -263 -10t-263 -4q-28 0 -103 1t-160 6t-159 13t-98 22q-62 36 -97 92t-54 122t-26 135t-9 133q-1 7 -1 14q0 5 0.5 14.5t0.5 13.5zM516 928q0 -32 6 -62l668 22q-12 88 -45 139t-82 76t-112 32t-135 7q-24 0 -60 -1t-72 -6t-68 -15t-50 -28q-14 -12 -23 -33 t-15 -45t-9 -47t-3 -39z" />
<glyph unicode="f" horiz-adv-x="940" d="M40 608v54q0 70 8 138t12 138q64 2 94 5t40 7q12 4 8 10q4 68 12 130q6 52 16 106t26 84q50 96 117 147t146 74t168 26t185 3h31q15 0 31 -2q6 -58 6 -110q0 -58 -5 -113t-13 -113q-10 2 -32 2q-28 0 -63 -4t-70 -13t-67 -24t-52 -37q-22 -26 -43 -64t-21 -74 q0 -16 2 -24l224 -10q4 -32 8 -66t4 -66t-2 -62l-4 -60l-194 -40q16 -172 34 -341t28 -341q-24 0 -48 1t-46 1q-104 0 -205 -7t-203 -9l18 662z" />
<glyph unicode="g" horiz-adv-x="1538" d="M52 612q0 56 6 142t21 175t40 168t63 119q22 24 71 42t111 30t131 21t135 13t121 6t87 2q112 0 224 -6l14 128l336 -50q2 -174 3 -346t1 -348q0 -84 -1 -167t-1 -167q-1 -29 -1 -60v-30v-18q0 -37 -3 -74q-6 -44 -12 -93t-20 -97t-37 -90t-61 -72q-10 -8 -40 -14t-70 -12 t-86 -10t-88 -7t-76 -6t-48 -3q-126 -4 -249 -6t-249 -2h-128q-4 34 -8 70t-4 72q0 40 -8 83t-18 85l132 -2q12 0 67 1t129 2t159 4t157 9t123 14t57 18q16 26 20 59t4 63q0 16 -1 33t-3 33q-112 -8 -222 -14t-224 -6h-65q-39 0 -80 2t-80 6t-63 12q-40 12 -81 27t-77 37 t-63 53t-37 75q-6 22 -7 48t-1 48zM450 898q0 -22 5 -67t13 -93t20 -90t24 -58t30 -24t39 -11t42 -4t37 -1q40 0 97 3t114 11t107 23t76 41q4 2 6 20t2 38v38v22q0 64 -2 125t-6 125q-88 20 -176 32t-180 12q-16 0 -48 -2t-67 -7t-65 -14t-42 -21q-18 -20 -22 -46t-4 -52z " />
<glyph unicode="h" horiz-adv-x="1528" d="M62 1462l440 28q-4 -132 -8 -263t-8 -263q38 32 86 49t99 23t103 6h100q72 0 163 -5t174 -28t147 -73t86 -140q2 -4 2 -8v-8q0 -74 -9 -149t-19 -149q-16 -130 -36 -257t-40 -257q-98 -2 -192 -8t-190 -14v289q0 143 -6 287q0 28 -1 72t-9 72q-12 46 -30 63t-70 17 q-36 0 -84 -8t-98 -20t-95 -27t-75 -31q-16 -162 -39 -322t-29 -324l-282 14q-22 360 -42 717t-38 717z" />
<glyph unicode="i" horiz-adv-x="648" d="M52 1350q0 38 15 71t40 57t58 38t71 14t75 -15t66 -42t47 -62t18 -73q0 -40 -17 -75t-46 -61t-65 -41t-72 -15q-40 0 -75 18t-61 46t-40 65t-14 75zM104 974q106 4 209 12t211 12q-10 -106 -16 -210l-12 -208q-8 -122 -27 -242t-43 -240l-306 -32q0 64 1 126t1 126 q0 164 -6 328z" />
<glyph unicode="j" horiz-adv-x="630" d="M-216 -174l198 18q28 2 61 4t61 11t46 30t18 61q0 92 -8 184t-14 184q-10 150 -22 300t-24 304q22 -2 42 -2h42q78 0 157 5t157 9v-190v-316q0 -156 -2 -316q0 -52 -2 -104t-2 -104q0 -46 -4 -100t-17 -105t-42 -91t-81 -56q-18 -6 -76 -10t-124 -6t-125 -2h-79 q-30 0 -60 1t-58 1q-4 76 -17 145t-25 145zM64 1352q0 76 55 128t131 52q38 0 75 -15t66 -42t47 -62t18 -75t-18 -74t-46 -61t-64 -42t-74 -15q-40 0 -75 18t-61 46t-40 65t-14 77z" />
<glyph unicode="k" horiz-adv-x="1380" d="M82 38q12 280 26 557t14 559q0 86 -1 170t-3 172q82 -16 163 -20t163 -12v-748q156 96 305 196t289 220q106 -12 207 -18t207 -12l-514 -372q6 -24 24 -77t40 -110t47 -106t47 -63q14 -10 36 -16t45 -10t46 -5t39 -1q28 0 58 2t58 6q-4 -26 -6 -53t-2 -55q0 -48 2 -96 t2 -94q-14 -2 -49 -5t-80 -6t-95 -7t-93 -7t-74 -3t-39 4q-34 16 -66 34t-54 50q-10 14 -33 76t-48 136t-46 138t-27 82l-192 -124v-348z" />
<glyph unicode="l" horiz-adv-x="610" d="M82 1496l446 42q-16 -194 -31 -386t-25 -386q-10 -176 -21 -349t-21 -349l-306 -16q0 182 1 361v72q0 144 -3 289q-4 182 -16 361t-24 361z" />
<glyph unicode="m" horiz-adv-x="2116" d="M82 1186q56 6 111 11t111 5q54 0 108 -2t110 -4l-26 -172q92 74 177 110t203 36q46 0 81 -11t64 -30t57 -45t60 -56q36 56 83 89t101 51t114 23t120 5q48 0 101 -3t102 -17t89 -42t62 -76q26 -58 42 -128t25 -144t12 -146t3 -134q0 -84 -3 -165t-11 -163q-84 -4 -161 -9 t-161 -21q24 144 24 290q0 26 -4 89t-11 132t-18 127t-25 76q-10 12 -30 18t-42 9t-44 4t-36 1q-24 0 -57 -2t-67 -7t-65 -15t-51 -24q-10 -8 -17 -42t-11 -82t-7 -104t-5 -105t-2 -86v-47q0 -132 6 -264q-58 -2 -113 -4t-113 -2h-16q-10 0 -20 2q-12 0 -24 2v146 q0 62 -2 128t-4 116q-2 34 -6 88t-18 105t-41 88t-75 37q-22 0 -59 -7t-76 -18t-72 -26t-47 -31q-4 -4 -9 -45t-9 -100t-9 -128t-8 -129t-6 -103t-3 -51q-40 -4 -81 -7t-81 -3q-38 0 -76 2t-74 6q-10 254 -29 502t-41 502z" />
<glyph unicode="n" horiz-adv-x="1382" d="M40 1310q40 2 80 3t80 1q52 0 105 -3t105 -5l14 -154q56 92 152 154t206 62q56 0 116 -6t115 -24t104 -50t83 -82q16 -24 27 -71t19 -106t13 -125t7 -126t3 -109t1 -75v-109q0 -55 -4 -109l-446 -28q8 104 13 206t5 208v34q0 24 -2 51t-4 51t-4 34q-10 28 -21 48t-26 32 t-37 17t-54 5q-24 0 -61 -4t-75 -12t-72 -20t-48 -28l-4 -590q-4 8 -23 8h-27q-60 0 -124 -5t-124 -13q-26 236 -46 470t-46 470z" />
<glyph unicode="o" horiz-adv-x="1672" d="M82 794q0 38 2 105t12 137t29 131t55 85q16 10 60 18t104 14t128 9t133 4t121 1t90 -2q30 -2 86 -3t125 -3t143 -7t138 -13t113 -21t65 -31q26 -28 42 -84t25 -119t12 -124t3 -99v-31q0 -15 -2 -31q-2 -28 -10 -92t-22 -133t-34 -127t-44 -74q-12 -8 -81 -14t-168 -12 t-215 -10t-221 -7t-184 -5t-105 -2h-41q-29 0 -61 1t-60 3t-40 6q-28 10 -56 33t-52 52t-43 60t-27 59q-6 22 -10 67t-6 94t-3 95t-1 70zM462 838q0 -18 3 -65t8 -100t13 -97t20 -56q14 -16 53 -26t84 -17t87 -10t60 -3q32 0 76 2t89 10t85 22t64 38q14 14 22 42t12 60t5 63 t1 49q0 24 -2 56t-6 65t-12 64t-20 51q-16 26 -62 40t-101 21t-108 9t-79 2q-14 0 -50 -1t-75 -3t-73 -7t-44 -11q-18 -12 -28 -37t-15 -55t-6 -59t-1 -47z" />
<glyph unicode="p" horiz-adv-x="1610" d="M102 1316q100 8 198 14t198 14l14 -106q138 16 277 27t279 11q18 0 39 1t39 -3q48 -10 98 -25t94 -39t78 -61t52 -89q12 -40 22 -88t16 -99t9 -100t3 -91q0 -28 -1 -61t-6 -67t-14 -65t-25 -55q-34 -50 -64 -85t-65 -58t-79 -37t-104 -22q-90 -14 -178 -25t-178 -11 q-40 0 -82 4t-78 26q-20 10 -43 27t-45 36t-43 38t-37 33l-12 -502q-45 -3 -90 -3h-22q-56 1 -114 1q-34 0 -65 -1t-65 -3q8 172 15 343t7 341v24q0 190 -10 378t-18 378zM458 808l18 -268q74 -22 159 -40t161 -18q20 0 62 -1h21q32 0 66 2q45 3 84 9t51 22q10 12 18 39 t14 58t9 60t3 47q0 24 -4 52t-20 46q-40 46 -100 71t-118 25q-48 0 -104 -9t-112 -24t-110 -34t-98 -37z" />
<glyph unicode="q" horiz-adv-x="1630" d="M40 770v12q0 60 15 127t46 129t76 113t105 79q34 16 94 26t126 16t127 8t99 2q80 0 159 -4t159 -10l4 102q112 -10 217 -27t213 -39q8 -126 13 -249t5 -249q0 -36 -1 -74t-1 -74q-8 -188 -12 -373t-8 -373l-402 -14v444q-16 -16 -55 -24t-83 -12t-86 -4h-62q-38 0 -105 1 t-138 5t-136 11t-99 19q-66 22 -116 68t-85 105t-52 126t-17 133zM528 882q0 -36 1 -77t11 -75q8 -28 44 -43t81 -24t89 -11t66 -2q64 0 130 13t128 31l2 376q-70 10 -141 16t-141 6q-14 0 -49 -2t-74 -7t-73 -14t-44 -23q-10 -12 -16 -33t-9 -45t-4 -47t-1 -39z" />
<glyph unicode="r" horiz-adv-x="1270" d="M52 1276q114 -8 227 -23t227 -37l-10 -168q60 48 115 83t112 59t121 35t142 11q52 0 108 -11t96 -51q20 -22 34 -66t22 -93t11 -96t3 -75v-46l-386 -18q6 26 6 60q0 50 -14 65t-62 15q-68 0 -150 -24t-144 -46q-10 -88 -16 -176t-6 -176q0 -98 1 -195t3 -195l-344 -22 q-10 128 -20 255t-18 255q-10 170 -26 339t-32 341z" />
<glyph unicode="s" horiz-adv-x="1304" d="M62 965v29q0 36 4 82t15 92t28 87t45 67q18 18 64 30t106 21t128 15t131 9t114 4t77 1q112 0 221 -4t217 -10l-12 -260q-62 4 -124 6t-124 2q-26 0 -74 -1t-107 -3t-121 -6t-114 -8t-88 -10t-44 -12q-26 -26 -26 -60q0 -22 12 -36q4 -6 44 -10t98 -7t127 -4t132 -2 t112 -3t69 -4q76 -10 121 -44t69 -85t31 -115t7 -130q0 -32 -5 -76t-15 -88t-29 -82t-45 -60q-30 -24 -97 -40t-144 -26t-149 -14t-110 -4q-132 0 -264 15t-262 33v382q126 -26 253 -30t255 -14q26 -2 79 -3h27q40 0 80 2q54 3 98 13t54 28q4 6 4 14v14q0 16 -3 41t-13 39 q-2 2 -14 3t-14 1q-112 6 -224 7t-226 11q-46 4 -93 9t-93 15q-38 8 -69 18t-54 26t-39 41t-22 67q-4 14 -4 27z" />
<glyph unicode="t" horiz-adv-x="984" d="M62 840q8 90 9 178t9 178l120 -4v296q114 -22 227 -23t227 -9l-4 -306l168 -10q0 -14 1 -26t1 -26q0 -56 -9 -109t-23 -107h-146q-4 -92 -6 -184t-2 -184q0 -44 3 -79t16 -59t43 -36t84 -12q74 0 148 10t148 26l-34 -352q-64 -4 -128 -7t-128 -3q-34 0 -90 2t-116 7 t-114 14t-86 23q-48 22 -79 58t-51 79t-32 92t-18 97q-6 46 -9 99t-4 109t-1 109v99v60h-124z" />
<glyph unicode="u" horiz-adv-x="1566" d="M92 536v90q0 150 12 296t34 290q56 6 120 6q52 0 104 -7t104 -17q0 -10 2 -58t5 -114t7 -141t9 -139t12 -109t15 -49q30 -18 66 -20t70 -2q24 0 75 3t105 10t100 18t62 27q6 6 9 38t4 70t2 71t1 39q0 90 -4 178t-8 178l388 18q12 -140 22 -279t26 -279q6 -46 7 -94t3 -96 q4 -90 5 -180t3 -182l-338 -14l-24 202q-38 -52 -91 -88t-114 -58t-126 -31t-127 -9q-48 0 -119 8t-144 23t-135 39t-90 56q-22 24 -33 77t-15 113t-4 116z" />
<glyph unicode="v" horiz-adv-x="1300" d="M-30 1138l444 12q40 -186 77 -371t77 -373q76 176 147 350t129 358q124 0 244 2t244 12q-74 -138 -146 -267t-147 -254t-155 -249t-170 -252l-348 -14z" />
<glyph unicode="w" horiz-adv-x="1796" d="M20 1326l412 12l132 -626q40 90 82 178t84 178q44 100 96 190l226 -4q58 -146 113 -291t119 -287q36 96 63 179t49 164t42 166t40 185l298 -6q-58 -282 -111 -562t-113 -562l-416 -4l-152 540l-348 -540l-454 -34q-16 138 -34 278t-40 278q-22 144 -44 285t-44 283z" />
<glyph unicode="x" horiz-adv-x="1268" d="M-122 208q0 2 18 22t45 49t60 64t63 66t53 55t31 32q60 66 120 135t120 137l-468 538l472 12l200 -326q42 46 73 83t59 73t56 75t62 91l508 14q-126 -134 -244 -268q-64 -70 -131 -137t-133 -131q112 -156 220 -312t224 -308l-388 -10q-82 102 -158 202t-166 190 l-378 -360q-78 4 -157 9t-161 5z" />
<glyph unicode="y" horiz-adv-x="1596" d="M72 708q0 162 22 323t56 319l422 -4q-34 -126 -60 -256t-26 -262q0 -70 10 -114t36 -71t72 -37t116 -10q28 0 69 4t84 11t82 19t61 30q8 6 14 40t10 81t6 101t3 102t1 83v45v135q0 67 -4 135q98 -10 193 -17t193 -11q8 -194 17 -384t19 -384q4 -48 4 -97v-95v-64 q0 -42 -2 -95t-5 -110t-7 -108t-11 -90t-15 -55q-34 -54 -63 -83t-63 -41t-77 -13t-101 -1q-192 0 -382 15t-380 35v274q18 0 79 1t143 3t174 6t172 10t138 14t72 20q18 14 29 43t16 61t7 64t2 52v38q0 18 -2 40q-30 -68 -80 -102t-112 -48t-130 -15t-130 -1q-130 0 -251 11 t-214 57t-150 139t-57 257z" />
<glyph unicode="z" horiz-adv-x="1234" d="M-20 1328q194 10 387 16t387 6q96 0 189 -1t189 -5q-4 -60 -7 -120t-3 -120t3 -121t7 -121l-634 -346q48 -2 95 -2h95q124 0 246 3q52 1 105 1q70 0 141 -2l4 -264q-278 0 -552 -2t-550 -8l-14 310q100 62 199 124t197 126q70 46 136 95t130 101l-746 68z" />
<glyph unicode="{" horiz-adv-x="792" d="M82 608v280q64 8 129 33t107 79q20 24 26 49t6 57q0 58 -10 112t-10 110q0 76 27 130t85 98q80 60 176 91t196 35l-16 -206q-10 2 -19 2h-19q-64 0 -105 -25t-65 -66t-34 -92t-10 -105q0 -58 9 -113t9 -111q0 -38 -19 -69t-48 -55t-63 -41t-64 -29q30 -18 59 -44t52 -57 t37 -67t14 -72t-8 -70t-17 -67t-17 -66t-8 -65q0 -58 28 -97t71 -63t95 -36t100 -14l22 -232q-52 2 -112 10t-119 25t-112 45t-91 72q-36 40 -45 93t-9 109q0 68 13 133t13 131q0 24 -2 42t-18 36q-18 24 -47 40t-61 26t-65 15t-61 9z" />
<glyph unicode="|" horiz-adv-x="448" d="M102 -54q4 204 9 404t11 402q2 52 2 101v101q0 280 -12 562l214 -20q-8 -204 -13 -404t-5 -402q0 -186 10 -369t28 -367z" />
<glyph unicode="}" horiz-adv-x="794" d="M0 1678q54 -2 114 -9t119 -24t112 -44t91 -69q40 -44 49 -100t9 -114q0 -64 -10 -124t-10 -122q0 -24 1 -44t17 -38q18 -24 47 -41t62 -27t67 -15t62 -7l4 -280q-46 -6 -94 -21t-87 -41t-63 -65t-24 -91q0 -58 14 -116t14 -116q0 -74 -28 -126t-86 -98q-76 -60 -171 -92 t-195 -38l12 206q8 -2 17 -2h17q64 0 105 24t65 64t34 91t10 105q0 58 -11 117t-11 117q0 36 19 67t47 55t61 42t63 30q-30 16 -59 42t-53 57t-39 66t-15 71q0 38 7 73t16 67t17 63t8 63q0 60 -28 99t-72 63t-96 35t-102 13z" />
<glyph unicode="~" horiz-adv-x="1174" d="M40 620q18 12 68 48t108 73t111 66t75 29q28 0 75 -23t98 -51t99 -51t80 -23q24 0 57 15t66 35t62 42t47 38l146 -160q-22 -16 -72 -49t-106 -66t-110 -58t-84 -25q-38 0 -83 26t-91 57t-89 57t-75 26q-28 0 -62 -19t-68 -46t-64 -55t-46 -46z" />
<glyph unicode="&#xa1;" horiz-adv-x="650" d="M62 -394q2 52 4 114t6 126t11 125t17 113q30 150 61 297t63 295l218 20l52 -504q14 -136 20 -272t12 -274zM96 986q0 34 22 67t54 58t70 41t70 16q30 0 63 -11t60 -31t44 -48t17 -62q0 -40 -23 -70t-57 -52t-74 -33t-72 -11q-56 0 -101 26t-67 78q-6 14 -6 32z" />
<glyph unicode="&#xa2;" horiz-adv-x="1140" d="M40 738q0 132 42 235t130 201q20 22 60 37t85 25t88 15t71 7l24 134h234l6 -168l244 -12q4 -34 9 -71t5 -71q0 -32 -5 -64t-9 -64q-62 10 -133 22t-144 23t-145 18t-136 7q-2 0 -25 -1t-29 -5q-16 -10 -26 -42t-16 -69t-8 -71t-2 -52q0 -12 1 -31t4 -38t8 -37t15 -28 q20 -22 59 -34t84 -17t88 -6t71 -1q92 0 184 11t182 33q0 -76 7 -151t7 -151q-34 -8 -68 -10t-68 -2q-54 0 -108 6t-106 14l10 -214l-266 6v200q-16 2 -69 13t-113 24t-111 29t-61 32q-18 28 -31 69t-22 86t-13 88t-4 75z" />
<glyph unicode="&#xa3;" horiz-adv-x="1488" d="M62 830l238 24q-12 94 -19 187t-7 187q0 90 36 157t126 95q18 6 42 9t49 5t49 2h42q54 0 154 -5t207 -14t203 -23t144 -32q30 -12 48 -55t29 -96t15 -104t4 -77v-30q-114 8 -221 -7t-217 -31q-2 14 -9 61t-17 99t-25 95t-33 49q-22 6 -41 8t-41 2t-59 -3t-77 -10t-75 -18 t-49 -25q-4 -4 -6 -16t-4 -27t-2 -28v-17q0 -84 12 -169t26 -169l244 6l8 -226l-214 -6q2 -54 4 -110t2 -114q0 -42 -15 -88t-35 -80q102 12 205 25t207 25q40 6 82 6h82q126 0 256 -6l18 -326q-178 14 -355 23t-355 9q-142 0 -283 -5t-283 -15l-28 238q10 -2 19 -3t19 -1 q36 0 77 17t69 45q12 14 21 39t13 53t6 54t2 44q0 68 -12 138l-204 -36q-18 68 -35 135t-37 135z" />
<glyph unicode="&#xa4;" horiz-adv-x="1220" d="M20 1000l132 146q76 -52 139 -97t149 -87q34 28 85 49t95 21q40 0 86 -10t82 -26q64 54 124 111t122 113l116 -126q-58 -52 -115 -106t-115 -108q28 -32 42 -74t14 -84q0 -38 -5 -75t-15 -73q52 -52 106 -94t118 -80l-112 -140q-60 56 -114 95t-120 85q-12 -16 -36 -28 t-53 -20t-58 -12t-49 -4q-36 0 -75 8t-69 28q-60 -62 -107 -113t-101 -121l-168 128l246 194q-30 34 -51 79t-21 93q0 34 8 70t20 70q-66 58 -141 104t-159 84zM480 716q0 -30 14 -59t36 -52t52 -36t60 -13t60 13t52 35t36 51t14 61q0 30 -14 57t-36 46t-50 30t-56 11 q-30 0 -60 -11t-54 -30t-39 -45t-15 -58z" />
<glyph unicode="&#xa5;" horiz-adv-x="1594" d="M-82 1390l192 8q96 4 192 4q12 0 27 -1t31 -1q18 -2 36 -2q56 -56 104 -102q40 -40 79 -77t53 -47q50 -42 101 -82t101 -80q48 38 102 83t106 94t98 100t80 103l476 -14q-96 -70 -203 -155t-189 -173q-64 -70 -127 -139t-125 -139l-6 -114l284 -12l6 -150l-284 -6l6 -142 h194l-6 -110l-188 -12l14 -214q-116 0 -232 -1t-232 -5l6 192l-264 -6v130l252 12v156l-272 6l-6 162l284 -6v108q-60 56 -121 108t-125 104q-40 34 -80 71t-80 73q-72 68 -143 137t-141 139z" />
<glyph unicode="&#xa6;" horiz-adv-x="532" d="M144 -58q10 156 14 307t10 307h202q-10 -156 -11 -312t-9 -312zM158 1504l232 4q0 -106 -2 -210t-2 -208v-104q0 -52 4 -104l-212 18q-6 150 -11 301t-9 303z" />
<glyph unicode="&#xa7;" horiz-adv-x="1404" d="M102 750q0 22 1 44t7 44q4 12 29 28t62 35t81 38t83 35t69 27t40 15q-18 4 -58 16t-83 27t-81 31t-52 30q-18 20 -31 54t-20 73t-11 76t-4 63q0 38 7 83t33 73q32 32 117 55t186 36t196 19t145 6q108 0 216 -6t216 -16l-42 -316q-108 10 -215 18t-215 8q-18 0 -74 -2 t-116 -9t-107 -21t-47 -40q0 -18 24 -29t38 -15q36 -10 92 -18t121 -16t132 -17t127 -20t107 -27t69 -36q20 -20 43 -66t42 -98t31 -102t12 -80q0 -8 -1 -14t-1 -14q-6 -24 -41 -58t-80 -67t-88 -60t-61 -37q20 -4 64 -16t89 -30t80 -42t41 -52q10 -56 19 -112t9 -110 q0 -26 -6 -62t-16 -73t-26 -69t-36 -50q-20 -20 -80 -34t-130 -23t-134 -13t-92 -4l-136 -2q-108 -2 -217 3t-219 15l-16 280q150 -6 302 -6h110q12 0 44 2t72 6t84 10t82 13t63 16t29 21q8 22 8 54q0 14 -2 24t-14 20q-2 2 -36 7t-84 11t-110 13t-114 14t-95 12t-53 7 q-28 4 -79 15t-104 27t-98 37t-59 45q-10 18 -18 58t-12 86t-6 88t-2 64zM434 756q0 -28 2 -54t20 -46q24 -24 62 -41t81 -28t85 -16t72 -7q20 12 44 32t45 46t34 53t13 55q0 42 -22 71t-55 49t-71 31t-72 15q-20 -8 -48 -20t-57 -25t-56 -27t-45 -26q-20 -16 -26 -26 t-6 -36z" />
<glyph unicode="&#xa8;" horiz-adv-x="1914" d="M534 1430q0 42 16 80t43 67t64 45t79 16q36 0 66 -16t52 -42t34 -60t12 -68q0 -76 -55 -128t-131 -52q-32 0 -64 12t-58 33t-42 50t-16 63zM1014 1426q0 42 15 79t42 66t64 45t81 16q36 0 67 -16t53 -42t34 -59t12 -67q0 -38 -15 -71t-41 -58t-59 -39t-71 -14 q-34 0 -66 12t-58 33t-42 51t-16 64z" />
<glyph unicode="&#xa9;" horiz-adv-x="1606" d="M62 862q0 42 9 113t25 144t40 138t52 99q22 24 66 47t99 41t119 33t125 25t115 15t92 5h40q40 -2 100 -12t129 -26t140 -38t130 -48t101 -56t54 -62q12 -34 21 -97t14 -132t8 -133t3 -102v-40q0 -18 -2 -36q-4 -42 -7 -109t-13 -135t-32 -125t-64 -79t-131 -41t-188 -32 t-190 -21t-137 -8q-34 0 -89 3t-120 10t-133 17t-126 24t-101 31t-57 37q-22 30 -39 105t-29 160t-18 165t-6 120zM238 750q0 -30 4 -79t13 -101t24 -97t37 -67t88 -38t146 -26t156 -14t118 -4t117 10t154 28t148 44t99 58q12 14 18 36t9 48t4 50t1 40q0 42 -2 127t-6 175 t-14 166t-24 98q-12 18 -48 35t-83 32t-102 28t-105 22t-92 15t-64 6q-20 0 -38 1t-34 1q-30 0 -92 -4t-128 -13t-123 -24t-79 -35q-22 -22 -39 -82t-29 -131t-20 -136t-10 -95q-2 -20 -3 -38t-1 -36zM456 816q0 28 3 78t14 101t30 92t53 51q32 10 72 20t81 16t81 8t76 -2 q18 -2 57 -6t79 -11t75 -17t45 -26q8 -10 12 -32t7 -46t4 -48t1 -38q0 -8 -1 -31t-7 -27h-8q-62 0 -124 -3t-124 -7v24q0 6 -1 22t-3 34t-6 33t-10 19q-16 10 -52 13t-56 3h-22q-14 0 -28 -2t-26 -7t-18 -13q-6 -10 -12 -47t-9 -79t-5 -80t-2 -52q0 -10 1 -29t3 -40t6 -39 t12 -26q16 -16 49 -19t53 -3q10 0 31 1t43 3t42 5t28 7q16 10 22 36t6 42q0 14 -2 29t-6 27l228 4q-2 -14 -7 -52t-14 -80t-20 -77t-23 -43q-20 -12 -59 -22t-83 -17t-85 -11t-65 -4q-28 0 -70 6t-84 17t-79 26t-57 33q-14 12 -23 51t-14 85t-7 89t-2 61z" />
<glyph unicode="&#xaa;" horiz-adv-x="788" d="M40 922q0 20 4 53t12 67t20 63t28 45q18 18 60 33t90 24t94 14t74 5q16 0 30 -11t24 -26t17 -32t11 -31q4 18 6 37t2 37q0 20 -4 50t-16 48q-4 6 -17 10t-27 6t-27 3t-19 1q-64 0 -128 -12t-124 -28l-20 202q58 8 116 13t118 5q26 0 74 -3t97 -11t93 -22t66 -36 q12 -12 18 -51t10 -83t5 -84t1 -54q0 -80 -5 -158t-9 -156l-172 -32l-38 122q-6 -20 -21 -59t-31 -55q-16 -18 -45 -30t-63 -19t-67 -11t-53 -4q-96 0 -140 34t-44 136zM192 1018q0 -10 2 -28t7 -37t12 -35t19 -20q12 -6 26 -6q26 0 63 12t55 32q10 10 13 23t3 29 q0 22 -9 62t-25 56q-6 8 -16 10t-20 2q-28 0 -68 -15t-56 -41q-4 -10 -5 -22t-1 -22z" />
<glyph unicode="&#xab;" horiz-adv-x="990" d="M0 354l498 364l-8 -222l-266 -158l290 -250l-106 -124zM412 350l500 366l-8 -224l-268 -158l292 -248l-108 -124z" />
<glyph unicode="&#xac;" horiz-adv-x="1222" d="M62 782q54 -2 106 -2h106q184 0 366 7t368 7h92q10 -106 20 -211t20 -213l-212 -8q-10 60 -18 119t-24 119q-206 0 -407 -11t-407 -29q2 24 3 49t1 51q0 30 -4 61t-10 61z" />
<glyph unicode="&#xad;" horiz-adv-x="892" d="M62 636l8 162q182 6 372 6h374l16 -168h-770z" />
<glyph unicode="&#xae;" horiz-adv-x="1606" d="M62 890v34q0 16 2 32q2 42 5 109t13 135t32 124t64 78q20 10 47 17t49 13q134 34 276 56t280 22q26 0 83 -4t127 -12t146 -19t142 -26t114 -34t64 -41q14 -22 22 -71t12 -104t4 -107v-80v-168q0 -44 -8 -114t-24 -144t-39 -139t-51 -99q-34 -38 -113 -69t-173 -54 t-187 -35t-151 -12q-40 0 -103 8t-135 23t-147 37t-138 48t-108 57t-57 65t-21 98t-15 134t-9 136t-3 106zM232 1064q0 -26 1 -73t3 -106t5 -122t9 -118t13 -96t19 -57q14 -20 52 -37t90 -32t111 -27t117 -20t107 -13t79 -5t93 3t131 12t127 24t81 37q20 20 37 82t29 132 t19 136t9 96q4 60 10 121t6 121q0 18 -1 40t-4 44t-10 42t-19 32q-24 24 -93 41t-150 27t-157 16t-114 10q-12 2 -25 2h-25q-42 0 -118 -10t-156 -29t-149 -46t-97 -59q-12 -14 -18 -35t-9 -45t-3 -47v-41zM446 1194q102 12 205 21t209 9q12 0 39 -1t57 -3t57 -6t37 -10 q24 -14 41 -43t28 -64t16 -71t5 -62q0 -76 -45 -115t-117 -49q46 -66 95 -130t95 -128l-220 -22q-26 62 -56 122l-60 120q-62 -10 -94 -14l-48 -6l-20 -2q2 -14 2 -26v-23q0 -13 2 -21l8 -170l-208 4q2 64 3 126t1 126q0 42 -2 83t-2 81q-2 70 -13 137t-15 137zM622 1070 q0 -46 7 -91t17 -87h38q32 0 70 2t69 5t35 9q6 8 7 17t1 19q0 22 -7 59t-21 57q-12 18 -47 21t-53 3q-28 0 -57 -4t-57 -4q-2 -2 -2 -6z" />
<glyph unicode="&#xaf;" horiz-adv-x="1914" d="M572 1436l8 162q186 6 374 6h372l16 -168h-770z" />
<glyph unicode="&#xb0;" horiz-adv-x="648" d="M30 1202q0 10 2 14q10 54 40 97t73 73t94 46t105 16q46 0 94 -13t88 -39t65 -65t25 -91q0 -58 -26 -101t-68 -73t-94 -45t-102 -15q-40 0 -91 13t-96 38t-77 62t-32 83zM202 1204q0 -60 20 -74t78 -14q10 0 34 1t49 4t47 8t30 11q16 12 18 34t2 38q0 42 -5 68t-20 40 t-40 19t-67 5q-10 0 -26 -1t-33 -3t-32 -5t-23 -7q-10 -6 -16 -22t-9 -36t-5 -38t-2 -28z" />
<glyph unicode="&#xb1;" horiz-adv-x="1084" d="M62 -60l8 162q234 8 468 7t470 -1l14 -168h-960zM62 808q96 0 193 4t193 8l-8 382l172 2q6 -96 14 -188t18 -188q46 2 93 4t93 2t95 -2t97 -4l-6 -146q-96 -10 -187 -14t-185 -10q0 -106 3 -211t7 -211l-192 -20v166q0 70 -1 145t-5 127h-382z" />
<glyph unicode="&#xb2;" horiz-adv-x="1122" d="M102 1300q0 32 13 78t49 60q30 12 94 19t136 11t138 5t100 1q60 0 123 -1t114 -18t84 -58t33 -121q0 -22 -4 -55t-20 -49q-10 -14 -39 -31t-63 -34t-65 -31t-47 -20q-86 -28 -168 -57t-166 -55q156 2 313 4t313 6q-4 -58 -5 -115t-5 -115l-848 -18q-10 74 -19 147 t-19 145q56 12 124 30t136 41t132 51t114 62q16 10 34 25t18 39q0 22 -16 45t-38 33q-14 4 -46 5t-46 1h-39q-27 0 -56 -1t-55 -6t-36 -15q-6 -6 -8 -19t-2 -21v-16q0 -8 4 -18l-252 -20q-4 22 -7 43t-3 43z" />
<glyph unicode="&#xb3;" horiz-adv-x="1112" d="M102 1458q180 6 357 13t357 7h142q0 -32 1 -64t1 -64q0 -62 -6 -122q-72 -22 -144 -43t-144 -45q18 -2 68 -8t107 -14t106 -17t65 -15q42 -20 51 -55t9 -75q0 -34 -13 -78t-41 -66t-89 -37t-133 -24t-143 -13t-115 -6q-64 -4 -129 -4h-129h-85q-43 0 -87 2v136q0 48 6 94 h146h39h79q46 0 98 1t97 2t76 3t33 4q6 4 9 7t3 13q0 16 -12 34t-24 28q-4 4 -34 6t-73 4t-93 4t-94 3t-75 1h-37q-2 10 -3 19t-1 19v42l418 126q-138 0 -278 3t-280 3q2 22 3 46t1 48q0 38 -10 82z" />
<glyph unicode="&#xb4;" horiz-adv-x="1914" d="M726 1380q36 36 69 72t65 76q42 54 90 102l96 96l142 -198q-50 -42 -95 -77t-91 -65t-95 -58t-107 -60z" />
<glyph unicode="&#xb5;" horiz-adv-x="1176" d="M62 646q0 88 6 182l306 -8q0 -30 5 -81t15 -110t26 -119t40 -109t58 -80t80 -31h6q58 8 95 63t57 125t27 142t7 116q0 20 -1 41t-1 43l300 8q6 -190 6 -378t10 -378l-192 -8l-20 166q-16 -42 -43 -83t-64 -73t-81 -52t-92 -20q-38 0 -77 9t-75 27t-65 44t-47 60l10 -458 h-228q-12 162 -25 321t-29 321q-10 80 -12 159t-2 161z" />
<glyph unicode="&#xb6;" horiz-adv-x="1858" d="M102 888q0 26 3 82t10 117t19 113t28 74q24 30 84 58t131 50t137 36t102 18q282 24 570 26t570 14q-16 -194 -32 -386t-26 -386l-20 -348q-10 -174 -22 -350l-304 -16q0 182 1 361t-3 361q-4 112 -9 223t-13 223l-98 4q-4 -98 -8 -193t-8 -193q-10 -188 -11 -372t-3 -372 q-40 0 -80 -1t-80 -5q-62 -4 -122 -12t-122 -12l-12 414h-65h-108q-61 0 -128 3t-126 7t-102 12t-55 20q-30 30 -49 84t-30 117t-15 125t-4 104zM582 954q-2 -50 5 -96t43 -80q22 -20 60 -26t78 -6q46 0 96 4q0 34 2 70q2 30 3 63t1 57q0 28 1 69t3 77q2 42 6 88 q-50 6 -98 4q-40 -2 -82 -9t-68 -27q-16 -12 -26 -36t-15 -51t-7 -55t-2 -46z" />
<glyph unicode="&#xb7;" horiz-adv-x="458" d="M62 754q0 22 4 60t22 54q6 6 29 9t50 6t53 4t36 1t27 -1t35 -3t34 -6t22 -10q8 -8 12 -30t7 -47t4 -48t1 -35v-26q0 -16 -2 -32t-6 -31t-12 -21t-31 -10t-51 -7t-54 -4t-38 -1h-27q-17 0 -35 2t-33 7t-21 13q-8 10 -13 31t-8 44t-4 46t-1 35z" />
<glyph unicode="&#xb8;" horiz-adv-x="1914" d="M720 -122q0 34 1 69t3 69l232 48v-248q52 -6 92 -19t69 -35t48 -59t27 -91q0 -6 1 -11t1 -11q0 -24 -5 -57t-16 -65t-27 -59t-38 -39t-71 -23t-106 -21t-110 -17t-83 -11l-8 186q14 2 52 9t79 15t76 16t43 14q22 10 29 26t7 38q0 54 -44 82q-10 6 -44 9t-75 4t-79 0 t-54 -1v182z" />
<glyph unicode="&#xb9;" horiz-adv-x="556" d="M40 1270q24 46 34 90t24 94l348 6q4 -46 10 -100t12 -113t11 -120t11 -117q12 -132 24 -270l-390 10l46 512z" />
<glyph unicode="&#xba;" horiz-adv-x="964" d="M40 1166q0 20 3 41t17 39q20 24 72 51t113 50t118 37t87 14q22 0 63 -1t89 -6t98 -13t92 -22t71 -35t35 -49q8 -50 17 -101t9 -101q0 -34 -7 -66t-35 -54q-28 -26 -93 -49t-139 -41t-144 -28t-110 -10q-26 0 -73 3t-96 13t-89 27t-52 45q-10 20 -18 54t-14 71t-10 72 t-4 59zM242 1104q0 -38 22 -64t55 -43t70 -25t67 -8q36 0 81 10t84 30t66 52t27 76q0 38 -23 63t-57 38t-71 18t-67 5q-34 0 -78 -8t-83 -26t-66 -47t-27 -71z" />
<glyph unicode="&#xbb;" horiz-adv-x="1008" d="M62 536l96 134l440 -352l-440 -438l-36 254l250 180zM474 570l96 132l438 -352l-464 -408l-12 224l252 182z" />
<glyph unicode="&#xbc;" horiz-adv-x="2018" d="M40 1256q26 44 36 89t24 95l346 4q22 -182 38 -360t32 -360q-196 12 -392 12l46 512zM318 -30q58 124 115 246t115 244q34 74 67 145t63 143q70 172 135 343t129 347l268 -6q-52 -100 -101 -198t-97 -200l-68 -140q-34 -70 -62 -142q-76 -198 -150 -393t-150 -393z M952 282q8 106 12 211t14 207l202 12q22 -66 39 -134t33 -136l192 2q4 34 7 64t3 64q0 38 -3 77t-5 79q32 2 63 2h63q62 0 124 -3t126 -5l2 -264l110 2q10 -34 14 -75t8 -75l-150 -4q0 -80 3 -155t13 -151l-362 -12q-2 76 -3 151t-5 151z" />
<glyph unicode="&#xbd;" horiz-adv-x="1970" d="M40 1276q26 46 36 90t24 94l346 6q10 -92 23 -214t23 -236q12 -132 24 -270l-392 10l46 512zM352 -34q58 124 116 246l116 244q34 72 67 144t61 144q70 170 135 342t129 348l270 -6q-52 -100 -102 -198t-100 -200q-34 -70 -66 -140t-60 -142q-76 -198 -151 -393 t-151 -393zM950 602q0 32 13 78t49 60q30 10 93 17t135 11t138 6t100 2q60 0 123 -1t114 -18t83 -58t32 -121q0 -22 -3 -55t-17 -49q-10 -14 -39 -31t-63 -34t-66 -31t-48 -20q-84 -28 -167 -57t-167 -55q156 2 313 4t315 6q-4 -58 -5 -115t-5 -115l-848 -18q-10 74 -20 146 t-20 146q56 12 124 30t137 41t133 51t114 62q16 10 33 24t17 36q0 24 -15 48t-37 32q-14 4 -46 5t-48 1h-39q-27 0 -56 -1t-54 -6t-35 -13q-8 -6 -10 -19t-2 -21t1 -16t3 -18l-252 -20q-4 22 -6 43t-2 43z" />
<glyph unicode="&#xbe;" horiz-adv-x="2422" d="M102 1458q180 6 357 13t357 7h142q0 -32 1 -64t1 -64q0 -62 -6 -122q-72 -22 -144 -43t-144 -45q18 -2 68 -8t107 -14t106 -17t65 -15q42 -20 51 -55t9 -75q0 -34 -13 -78t-41 -66t-89 -37t-133 -24t-143 -13t-115 -6q-64 -4 -129 -4h-129h-85q-43 0 -87 2v136q0 48 6 94 h146h39h79q46 0 98 1t97 2t76 3t33 4q6 4 9 7t3 13q0 16 -12 34t-24 28q-4 4 -34 6t-73 4t-93 4t-94 3t-75 1h-37q-2 10 -3 19t-1 19v42l418 126q-138 0 -278 3t-280 3q2 22 3 46t1 48q0 38 -10 82zM760 -8l234 492q34 70 65 142t61 144q70 172 135 343t129 345l268 -4 q-58 -114 -115 -226t-111 -228q-28 -56 -53 -112t-47 -114q-76 -198 -151 -393t-151 -395zM1358 322q6 104 11 208t13 210l204 10q22 -66 38 -133t32 -137l194 4q4 30 6 62t2 62q0 40 -2 79t-4 79q30 0 62 1t62 1q64 0 126 -2l124 -4l2 -266l108 2q14 -36 18 -75t8 -77 l-152 -2q0 -78 4 -153t12 -155l-360 -10q-2 76 -3 151t-5 151z" />
<glyph unicode="&#xbf;" horiz-adv-x="1304" d="M52 162v47q0 33 1 71t4 70t9 44q22 44 77 77t103 43q26 6 53 8t53 4q60 4 121 7t121 7q6 60 6 118q0 28 -8 61t-16 59l386 8v-492l-38 2q-16 2 -76 1t-127 -5t-125 -11t-72 -17q-32 -26 -42 -61t-10 -73q0 -132 73 -202t201 -70q44 0 110 18t135 43t132 53t103 46 q18 -116 31 -231t27 -231q-136 -4 -271 -8t-271 -4h-100q-70 0 -147 3t-145 7t-96 14q-52 16 -101 53t-73 89q-8 18 -14 81t-9 137t-4 142t-1 92zM576 986q0 34 22 67t54 58t69 40t69 15q30 0 63 -11t60 -30t45 -47t18 -62q0 -40 -23 -70t-57 -52t-74 -33t-72 -11 q-56 0 -101 25t-67 77q-6 14 -6 34z" />
<glyph unicode="&#xc0;" d="M154 82q28 340 58 676t58 674q144 24 287 40t289 16q178 0 356 -6q32 -208 63 -415t65 -415q24 -164 53 -324t63 -322l-304 -46q-32 102 -64 203t-62 203l-492 -18l-62 -266h-308zM562 628l384 10q-2 18 -10 67t-18 104t-23 100t-25 53q-4 2 -19 4t-32 4t-33 2h-22h-27 q-17 0 -36 -1t-36 -5t-23 -10q-4 -2 -10 -26t-15 -59t-18 -75t-17 -76t-13 -62t-7 -30zM462 1896l144 198q46 -48 94 -96t92 -102q32 -40 65 -76t67 -72l-72 -112q-58 32 -107 60t-95 58t-92 65t-96 77z" />
<glyph unicode="&#xc1;" d="M154 82q28 340 58 676t58 674q144 24 287 40t289 16q178 0 356 -6q32 -208 63 -415t65 -415q24 -164 53 -324t63 -322l-304 -46q-32 102 -64 203t-62 203l-492 -18l-62 -266h-308zM562 628l384 10q-2 18 -10 67t-18 104t-23 100t-25 53q-4 2 -19 4t-32 4t-33 2h-22h-27 q-17 0 -36 -1t-36 -5t-23 -10q-4 -2 -10 -26t-15 -59t-18 -75t-17 -76t-13 -62t-7 -30zM584 1728q36 36 69 72t65 76q42 54 90 102l96 96l142 -198q-50 -42 -95 -77t-91 -65t-95 -58t-107 -60z" />
<glyph unicode="&#xc2;" d="M154 82q28 340 58 676t58 674q144 24 287 40t289 16q178 0 356 -6q32 -208 63 -415t65 -415q24 -164 53 -324t63 -322l-304 -46q-32 102 -64 203t-62 203l-492 -18l-62 -266h-308zM562 628l384 10q-2 18 -10 67t-18 104t-23 100t-25 53q-4 2 -19 4t-32 4t-33 2h-22h-27 q-17 0 -36 -1t-36 -5t-23 -10q-4 -2 -10 -26t-15 -59t-18 -75t-17 -76t-13 -62t-7 -30zM338 1700q100 110 199 217t203 211q102 -98 197 -199t193 -205l-188 -8l-198 222l-196 -232z" />
<glyph unicode="&#xc3;" d="M154 82q28 340 58 676t58 674q144 24 287 40t289 16q178 0 356 -6q32 -208 63 -415t65 -415q24 -164 53 -324t63 -322l-304 -46q-32 102 -64 203t-62 203l-492 -18l-62 -266h-308zM562 628l384 10q-2 18 -10 67t-18 104t-23 100t-25 53q-4 2 -19 4t-32 4t-33 2h-22h-27 q-17 0 -36 -1t-36 -5t-23 -10q-4 -2 -10 -26t-15 -59t-18 -75t-17 -76t-13 -62t-7 -30zM306 1790q18 12 60 41t88 59t88 53t58 23q28 0 66 -19t79 -41t80 -41t67 -19q20 0 47 12t54 28t51 35t40 31l120 -132q-22 -16 -64 -43t-87 -53t-88 -45t-69 -19q-30 0 -67 21t-75 46 t-73 46t-61 21q-22 0 -50 -15t-56 -37t-52 -45t-38 -37z" />
<glyph unicode="&#xc4;" d="M154 82q28 340 58 676t58 674q144 24 287 40t289 16q178 0 356 -6q32 -208 63 -415t65 -415q24 -164 53 -324t63 -322l-304 -46q-32 102 -64 203t-62 203l-492 -18l-62 -266h-308zM562 628l384 10q-2 18 -10 67t-18 104t-23 100t-25 53q-4 2 -19 4t-32 4t-33 2h-22h-27 q-17 0 -36 -1t-36 -5t-23 -10q-4 -2 -10 -26t-15 -59t-18 -75t-17 -76t-13 -62t-7 -30zM310 1840q0 42 16 80t43 67t64 45t79 16q36 0 66 -16t52 -42t34 -60t12 -68q0 -76 -55 -128t-131 -52q-32 0 -64 12t-58 33t-42 50t-16 63zM790 1836q0 42 15 79t42 66t64 45t81 16 q36 0 67 -16t53 -42t34 -59t12 -67q0 -38 -15 -71t-41 -58t-59 -39t-71 -14q-34 0 -66 12t-58 33t-42 51t-16 64z" />
<glyph unicode="&#xc5;" d="M154 82q28 340 58 676t58 674q86 16 171 27t171 19q-68 22 -122 66t-54 108q0 10 2 16q10 54 40 97t72 72t94 45t104 16q46 0 95 -13t88 -39t64 -65t25 -91q0 -72 -41 -123t-101 -79q162 0 324 -6q32 -208 63 -415t65 -415q24 -164 53 -324t63 -322l-304 -46 q-32 102 -64 203t-62 203l-492 -18l-62 -266h-308zM562 628l384 10q-2 18 -10 67t-18 104t-23 100t-25 53q-4 2 -19 4t-32 4t-33 2h-22h-27q-17 0 -36 -1t-36 -5t-23 -10q-4 -2 -10 -26t-15 -59t-18 -75t-17 -76t-13 -62t-7 -30zM608 1654q0 -60 19 -74t77 -14q10 0 34 2 t49 5t48 8t31 11q14 10 16 32t2 38q0 42 -5 68t-19 40t-40 19t-68 5q-10 0 -26 -1t-33 -2t-32 -4t-23 -9q-10 -6 -15 -22t-9 -35t-5 -38t-1 -29z" />
<glyph unicode="&#xc6;" horiz-adv-x="2066" d="M-62 -50q60 166 123 330t129 326q176 438 348 876q114 4 228 4h228q240 0 478 17t478 35q14 -90 22 -180t12 -182q-96 -6 -191 -14t-191 -22q-80 -10 -162 -19t-162 -17l22 -284q130 -4 256 -11t254 -19v-246q-124 -22 -246 -46t-248 -46l8 -180l330 -34q60 -8 118 -15 t104 -15q52 -8 100 -16q-2 -30 -2 -54q-2 -22 -2 -44v-34v-80q-266 -6 -529 -12t-531 -16l4 446l-384 8l-230 -424zM650 720l272 8q6 68 6 142q0 52 -2 102t-2 100l-120 6q-44 -88 -81 -177t-73 -181z" />
<glyph unicode="&#xc7;" horiz-adv-x="1474" d="M62 698q0 80 9 166t29 170t53 162t81 144q14 18 36 44t44 38q54 30 121 50t139 31t143 16t131 5q114 0 228 -13t222 -45q-4 -54 -6 -109t-2 -109q0 -130 6 -262q-90 34 -188 49t-194 15q-20 0 -58 -3t-86 -8t-99 -13t-95 -20t-77 -28t-43 -34q-8 -16 -13 -45t-8 -61 t-4 -62t-1 -48t4 -72t10 -115t15 -111t19 -58q10 -6 33 -7t31 -1q98 0 210 10t227 27t227 36t208 37l-2 -312q-92 -18 -182 -34t-182 -28q-104 -14 -214 -24v-178q50 -6 90 -19t70 -35t48 -59t28 -91q0 -6 1 -11t1 -11q0 -24 -5 -57t-16 -65t-27 -59t-38 -39t-72 -23 t-107 -21t-110 -17t-83 -11l-8 186q16 2 54 9t79 15t76 16t43 14q22 10 28 26t6 38q0 54 -42 82q-10 6 -44 9t-75 4t-79 0t-54 -1v182q0 28 1 55t1 55q-38 2 -85 5t-92 8t-82 13t-57 20q-22 14 -42 33t-36 39q-42 52 -70 114t-44 128t-23 134t-7 134z" />
<glyph unicode="&#xc8;" horiz-adv-x="1312" d="M122 -16q6 234 14 466t8 468v38q0 136 -4 271t-8 273q105 -1 210 -1h105q157 1 317 1q122 0 243 -5t243 -11l22 -266q-196 -10 -389 -21t-389 -27l-4 -158l516 30q10 -68 15 -134t5 -134q0 -28 -1 -58t-1 -58l-480 -86l30 -248q152 10 303 29t305 33q14 -100 28 -201 t40 -197q-114 1 -227 1q-169 0 -337 -2q-280 -3 -564 -3zM462 1896l144 198q46 -48 94 -96t92 -102q32 -40 65 -76t67 -72l-72 -112q-58 32 -107 60t-95 58t-92 65t-96 77z" />
<glyph unicode="&#xc9;" horiz-adv-x="1312" d="M122 -16q6 234 14 466t8 468v38q0 136 -4 271t-8 273q105 -1 210 -1h105q157 1 317 1q122 0 243 -5t243 -11l22 -266q-196 -10 -389 -21t-389 -27l-4 -158l516 30q10 -68 15 -134t5 -134q0 -28 -1 -58t-1 -58l-480 -86l30 -248q152 10 303 29t305 33q14 -100 28 -201 t40 -197q-114 1 -227 1q-169 0 -337 -2q-280 -3 -564 -3zM564 1748q36 36 69 72t65 76q42 54 90 102l96 96l142 -198q-50 -42 -95 -77t-91 -65t-95 -58t-107 -60z" />
<glyph unicode="&#xca;" horiz-adv-x="1312" d="M122 -16q6 234 14 466t8 468v38q0 136 -4 271t-8 273q105 -1 210 -1h105q157 1 317 1q122 0 243 -5t243 -11l22 -266q-196 -10 -389 -21t-389 -27l-4 -158l516 30q10 -68 15 -134t5 -134q0 -28 -1 -58t-1 -58l-480 -86l30 -248q152 10 303 29t305 33q14 -100 28 -201 t40 -197q-114 1 -227 1q-169 0 -337 -2q-280 -3 -564 -3zM318 1700q100 110 199 217t203 211q102 -98 197 -199t193 -205l-188 -8l-198 222l-196 -232z" />
<glyph unicode="&#xcb;" horiz-adv-x="1312" d="M122 -16q6 234 14 466t8 468v38q0 136 -4 271t-8 273q105 -1 210 -1h105q157 1 317 1q122 0 243 -5t243 -11l22 -266q-196 -10 -389 -21t-389 -27l-4 -158l516 30q10 -68 15 -134t5 -134q0 -28 -1 -58t-1 -58l-480 -86l30 -248q152 10 303 29t305 33q14 -100 28 -201 t40 -197q-114 1 -227 1q-169 0 -337 -2q-280 -3 -564 -3zM270 1840q0 42 16 80t43 67t64 45t79 16q36 0 66 -16t52 -42t34 -60t12 -68q0 -76 -55 -128t-131 -52q-32 0 -64 12t-58 33t-42 50t-16 63zM750 1836q0 42 15 79t42 66t64 45t81 16q36 0 67 -16t53 -42t34 -59 t12 -67q0 -38 -15 -71t-41 -58t-59 -39t-71 -14q-34 0 -66 12t-58 33t-42 51t-16 64z" />
<glyph unicode="&#xcc;" horiz-adv-x="1042" d="M52 1422q218 8 433 19t435 27q-8 -102 -8 -203v-40q1 -40 1 -81q0 -80 -3 -160l-222 8q-2 -70 -3 -138t-1 -138q0 -84 1 -165t3 -165l204 -4q-4 -58 -4 -118v-120q0 -50 3 -100t13 -98l-718 -12q0 98 -2 193t-8 193l130 2q-10 188 -23 372t-27 370l-190 24q-4 84 -7 167 t-7 167zM196 1896l144 198q46 -48 94 -96t92 -102q32 -40 65 -76t67 -72l-72 -112q-58 32 -107 60t-95 58t-92 65t-96 77z" />
<glyph unicode="&#xcd;" horiz-adv-x="1042" d="M52 1422q218 8 433 19t435 27q-8 -102 -8 -203v-40q1 -40 1 -81q0 -80 -3 -160l-222 8q-2 -70 -3 -138t-1 -138q0 -84 1 -165t3 -165l204 -4q-4 -58 -4 -118v-120q0 -50 3 -100t13 -98l-718 -12q0 98 -2 193t-8 193l130 2q-10 188 -23 372t-27 370l-190 24q-4 84 -7 167 t-7 167zM360 1728q36 36 69 72t65 76q42 54 90 102l96 96l142 -198q-50 -42 -95 -77t-91 -65t-95 -58t-107 -60z" />
<glyph unicode="&#xce;" horiz-adv-x="1042" d="M52 1422q218 8 433 19t435 27q-8 -102 -8 -203v-40q1 -40 1 -81q0 -80 -3 -160l-222 8q-2 -70 -3 -138t-1 -138q0 -84 1 -165t3 -165l204 -4q-4 -58 -4 -118v-120q0 -50 3 -100t13 -98l-718 -12q0 98 -2 193t-8 193l130 2q-10 188 -23 372t-27 370l-190 24q-4 84 -7 167 t-7 167zM72 1680q100 110 199 217t203 211q102 -98 197 -199t193 -205l-188 -8l-198 222l-196 -232z" />
<glyph unicode="&#xcf;" horiz-adv-x="1042" d="M52 1422q218 8 433 19t435 27q-8 -102 -8 -203v-40q1 -40 1 -81q0 -80 -3 -160l-222 8q-2 -70 -3 -138t-1 -138q0 -84 1 -165t3 -165l204 -4q-4 -58 -4 -118v-120q0 -50 3 -100t13 -98l-718 -12q0 98 -2 193t-8 193l130 2q-10 188 -23 372t-27 370l-190 24q-4 84 -7 167 t-7 167zM86 1840q0 42 16 80t43 67t64 45t79 16q36 0 66 -16t52 -42t34 -60t12 -68q0 -76 -55 -128t-131 -52q-32 0 -64 12t-58 33t-42 50t-16 63zM566 1836q0 42 15 79t42 66t64 45t81 16q36 0 67 -16t53 -42t34 -59t12 -67q0 -38 -15 -71t-41 -58t-59 -39t-71 -14 q-34 0 -66 12t-58 33t-42 51t-16 64z" />
<glyph unicode="&#xd0;" horiz-adv-x="1740" d="M82 698l8 162q34 2 66 2t66 2q-12 148 -22 295t-16 297q170 -6 335 -13t335 -19q44 -4 129 -10t178 -17t174 -27t115 -40q46 -34 83 -92t53 -114q8 -26 12 -81t6 -117t3 -120t1 -88q0 -58 -1 -122t-13 -122q-10 -44 -22 -77t-30 -60t-44 -50t-64 -45q-12 -8 -64 -21 t-129 -31t-172 -38t-195 -39t-196 -38t-176 -34t-135 -26t-73 -13q-16 176 -31 348t-29 348h-152zM540 1068q6 -52 12 -101t10 -101h274l16 -168h-276q4 -62 8 -122t8 -122q38 2 109 11t146 24t139 38t92 55q22 24 26 51t4 59q0 22 -1 47t-3 47q-4 32 -10 67t-18 68t-30 62 t-44 51q-14 12 -69 19t-118 10t-119 4t-74 1h-82z" />
<glyph unicode="&#xd1;" horiz-adv-x="1866" d="M154 1548l782 4q40 -100 75 -201t67 -205q46 -158 104 -313t116 -311q-2 250 -9 498t-11 500l404 -48q8 -208 14 -414t6 -414q0 -176 -1 -347t-3 -347q-124 6 -246 6q-60 0 -121 -6t-121 -16q-76 166 -152 329t-152 329q-56 122 -106 244t-100 246q-18 -270 -37 -537 t-31 -537l-432 12q-10 384 -18 764t-28 764zM528 1852q18 12 60 41t88 59t88 53t58 23q28 0 66 -19t79 -41t80 -41t67 -19q20 0 47 12t54 28t51 35t40 31l120 -132q-22 -16 -64 -43t-87 -53t-88 -45t-69 -19q-30 0 -67 21t-75 46t-73 46t-61 21q-22 0 -50 -15t-56 -37 t-52 -45t-38 -37z" />
<glyph unicode="&#xd2;" horiz-adv-x="1912" d="M122 784q0 38 6 99t16 132t24 145t31 138t37 111t44 63q20 14 74 26t126 21t154 16t156 12t134 7t88 2q38 0 103 -4t141 -13t154 -22t145 -31t115 -40t60 -48q10 -22 19 -63t15 -93t11 -110t8 -111t5 -97t2 -70v-51q0 -25 -2 -49q-2 -20 -5 -70t-8 -115t-12 -137 t-16 -133t-19 -105t-20 -54q-60 -60 -143 -89t-173 -39q-75 -8 -150 -8h-30q-90 2 -168 2q-26 0 -88 1t-141 3t-165 7t-161 14t-130 22t-69 33q-16 22 -28 48t-22 50q-26 66 -48 141t-37 154t-24 157t-9 148zM544 666q0 -16 1 -48t5 -66t9 -64t15 -44q6 -10 36 -18t73 -15 t91 -11t93 -7t80 -4t49 -1q24 0 83 4t124 13t120 22t71 31q12 14 20 59t12 98t5 102t1 71q0 40 -4 85t-26 79q-16 24 -77 38t-134 20t-141 7t-96 1q-22 0 -77 -4t-116 -13t-113 -22t-64 -31q-12 -14 -19 -53t-12 -84t-7 -86t-2 -59zM766 1938l144 198q46 -48 94 -96t92 -102 q32 -40 65 -76t67 -72l-72 -112q-58 32 -107 60t-95 58t-92 65t-96 77z" />
<glyph unicode="&#xd3;" horiz-adv-x="1912" d="M122 784q0 38 6 99t16 132t24 145t31 138t37 111t44 63q20 14 74 26t126 21t154 16t156 12t134 7t88 2q38 0 103 -4t141 -13t154 -22t145 -31t115 -40t60 -48q10 -22 19 -63t15 -93t11 -110t8 -111t5 -97t2 -70v-51q0 -25 -2 -49q-2 -20 -5 -70t-8 -115t-12 -137 t-16 -133t-19 -105t-20 -54q-60 -60 -143 -89t-173 -39q-75 -8 -150 -8h-30q-90 2 -168 2q-26 0 -88 1t-141 3t-165 7t-161 14t-130 22t-69 33q-16 22 -28 48t-22 50q-26 66 -48 141t-37 154t-24 157t-9 148zM544 666q0 -16 1 -48t5 -66t9 -64t15 -44q6 -10 36 -18t73 -15 t91 -11t93 -7t80 -4t49 -1q24 0 83 4t124 13t120 22t71 31q12 14 20 59t12 98t5 102t1 71q0 40 -4 85t-26 79q-16 24 -77 38t-134 20t-141 7t-96 1q-22 0 -77 -4t-116 -13t-113 -22t-64 -31q-12 -14 -19 -53t-12 -84t-7 -86t-2 -59zM870 1810q36 36 69 72t65 76 q42 54 90 102l96 96l142 -198q-50 -42 -95 -77t-91 -65t-95 -58t-107 -60z" />
<glyph unicode="&#xd4;" horiz-adv-x="1912" d="M122 784q0 38 6 99t16 132t24 145t31 138t37 111t44 63q20 14 74 26t126 21t154 16t156 12t134 7t88 2q38 0 103 -4t141 -13t154 -22t145 -31t115 -40t60 -48q10 -22 19 -63t15 -93t11 -110t8 -111t5 -97t2 -70v-51q0 -25 -2 -49q-2 -20 -5 -70t-8 -115t-12 -137 t-16 -133t-19 -105t-20 -54q-60 -60 -143 -89t-173 -39q-75 -8 -150 -8h-30q-90 2 -168 2q-26 0 -88 1t-141 3t-165 7t-161 14t-130 22t-69 33q-16 22 -28 48t-22 50q-26 66 -48 141t-37 154t-24 157t-9 148zM544 666q0 -16 1 -48t5 -66t9 -64t15 -44q6 -10 36 -18t73 -15 t91 -11t93 -7t80 -4t49 -1q24 0 83 4t124 13t120 22t71 31q12 14 20 59t12 98t5 102t1 71q0 40 -4 85t-26 79q-16 24 -77 38t-134 20t-141 7t-96 1q-22 0 -77 -4t-116 -13t-113 -22t-64 -31q-12 -14 -19 -53t-12 -84t-7 -86t-2 -59zM624 1720q100 110 199 217t203 211 q102 -98 197 -199t193 -205l-188 -8l-198 222l-196 -232z" />
<glyph unicode="&#xd5;" horiz-adv-x="1912" d="M122 784q0 38 6 99t16 132t24 145t31 138t37 111t44 63q20 14 74 26t126 21t154 16t156 12t134 7t88 2q38 0 103 -4t141 -13t154 -22t145 -31t115 -40t60 -48q10 -22 19 -63t15 -93t11 -110t8 -111t5 -97t2 -70v-51q0 -25 -2 -49q-2 -20 -5 -70t-8 -115t-12 -137 t-16 -133t-19 -105t-20 -54q-60 -60 -143 -89t-173 -39q-75 -8 -150 -8h-30q-90 2 -168 2q-26 0 -88 1t-141 3t-165 7t-161 14t-130 22t-69 33q-16 22 -28 48t-22 50q-26 66 -48 141t-37 154t-24 157t-9 148zM544 666q0 -16 1 -48t5 -66t9 -64t15 -44q6 -10 36 -18t73 -15 t91 -11t93 -7t80 -4t49 -1q24 0 83 4t124 13t120 22t71 31q12 14 20 59t12 98t5 102t1 71q0 40 -4 85t-26 79q-16 24 -77 38t-134 20t-141 7t-96 1q-22 0 -77 -4t-116 -13t-113 -22t-64 -31q-12 -14 -19 -53t-12 -84t-7 -86t-2 -59zM570 1852q18 12 60 41t88 59t88 53t58 23 q28 0 66 -19t79 -41t80 -41t67 -19q20 0 47 12t54 28t51 35t40 31l120 -132q-22 -16 -64 -43t-87 -53t-88 -45t-69 -19q-30 0 -67 21t-75 46t-73 46t-61 21q-22 0 -50 -15t-56 -37t-52 -45t-38 -37z" />
<glyph unicode="&#xd6;" horiz-adv-x="1912" d="M122 784q0 38 6 99t16 132t24 145t31 138t37 111t44 63q20 14 74 26t126 21t154 16t156 12t134 7t88 2q38 0 103 -4t141 -13t154 -22t145 -31t115 -40t60 -48q10 -22 19 -63t15 -93t11 -110t8 -111t5 -97t2 -70v-51q0 -25 -2 -49q-2 -20 -5 -70t-8 -115t-12 -137 t-16 -133t-19 -105t-20 -54q-60 -60 -143 -89t-173 -39q-75 -8 -150 -8h-30q-90 2 -168 2q-26 0 -88 1t-141 3t-165 7t-161 14t-130 22t-69 33q-16 22 -28 48t-22 50q-26 66 -48 141t-37 154t-24 157t-9 148zM544 666q0 -16 1 -48t5 -66t9 -64t15 -44q6 -10 36 -18t73 -15 t91 -11t93 -7t80 -4t49 -1q24 0 83 4t124 13t120 22t71 31q12 14 20 59t12 98t5 102t1 71q0 40 -4 85t-26 79q-16 24 -77 38t-134 20t-141 7t-96 1q-22 0 -77 -4t-116 -13t-113 -22t-64 -31q-12 -14 -19 -53t-12 -84t-7 -86t-2 -59zM596 1880q0 42 16 80t43 67t64 45t79 16 q36 0 66 -16t52 -42t34 -60t12 -68q0 -76 -55 -128t-131 -52q-32 0 -64 12t-58 33t-42 50t-16 63zM1076 1876q0 42 15 79t42 66t64 45t81 16q36 0 67 -16t53 -42t34 -59t12 -67q0 -38 -15 -71t-41 -58t-59 -39t-71 -14q-34 0 -66 12t-58 33t-42 51t-16 64z" />
<glyph unicode="&#xd7;" horiz-adv-x="924" d="M62 440q76 82 150 163t148 165q-66 92 -140 176t-146 170l138 108q62 -82 126 -168q28 -40 65 -77t73 -71q62 84 116 163t112 167l134 -118q-40 -42 -74 -80t-66 -76t-63 -78t-67 -86q70 -84 143 -160t151 -154l-130 -132q-68 80 -136 158t-138 154q-70 -80 -135 -164 t-129 -170z" />
<glyph unicode="&#xd8;" horiz-adv-x="1468" d="M-62 84l264 268q-10 58 -18 125t-15 136t-11 136t-4 127q0 36 4 101t13 135t23 131t36 91q50 68 114 107t137 59t152 25t159 5q36 0 91 -3t112 -12t107 -24t74 -39l180 190q62 -26 98 -60t76 -86l-194 -216q10 -138 13 -274t3 -274q0 -40 -2 -108t-9 -139t-22 -134 t-39 -93q-80 -100 -153 -150t-152 -72t-171 -23t-212 -1h-51q-33 0 -69 3t-67 7t-47 14q-28 18 -55 53t-37 65l-216 -218q-22 18 -38 34t-29 32t-23 36t-22 46zM510 924q0 -68 3 -135t7 -133l430 534q0 38 -12 60t-33 33t-48 13t-59 2q-26 0 -59 -2t-66 -8t-64 -16t-53 -28 q-16 -12 -25 -58t-13 -99t-6 -100t-2 -63zM532 356q0 -6 1 -22t5 -33t11 -31t17 -18t31 -6t45 -4t46 -2h34h39q23 0 46 3t45 7t34 14q18 14 33 60t26 109t19 135t13 139t8 121t3 80z" />
<glyph unicode="&#xd9;" horiz-adv-x="1780" d="M154 634q0 206 15 408t33 406l412 10q-20 -128 -28 -271t-8 -275q0 -22 2 -77t8 -117t15 -114t23 -68q6 -6 31 -11t60 -9t75 -6t76 -3t64 -2t40 -1h34q24 0 49 1t47 3t30 8q24 16 36 78t18 136t6 142v98q0 46 1 92t1 92q0 94 -2 185t-6 185q42 -4 83 -5t83 -1q50 0 99 2 t97 12q42 -214 65 -433t23 -439q0 -114 -5 -226t-21 -226q-32 -24 -64 -45t-66 -45q-28 -18 -61 -41t-69 -45t-73 -39t-69 -23q-27 -7 -69 -7h-11q-50 1 -84 1q-84 -4 -168 -6t-172 -2q-40 0 -92 -1h-9q-46 0 -85 9q-12 2 -40 19t-63 42t-73 54t-73 56t-60 48t-35 29 q-10 106 -15 211t-5 211zM584 1856l144 198q46 -48 94 -96t92 -102q32 -40 65 -76t67 -72l-72 -112q-58 32 -107 60t-95 58t-92 65t-96 77z" />
<glyph unicode="&#xda;" horiz-adv-x="1780" d="M154 634q0 206 15 408t33 406l412 10q-20 -128 -28 -271t-8 -275q0 -22 2 -77t8 -117t15 -114t23 -68q6 -6 31 -11t60 -9t75 -6t76 -3t64 -2t40 -1h34q24 0 49 1t47 3t30 8q24 16 36 78t18 136t6 142v98q0 46 1 92t1 92q0 94 -2 185t-6 185q42 -4 83 -5t83 -1q50 0 99 2 t97 12q42 -214 65 -433t23 -439q0 -114 -5 -226t-21 -226q-32 -24 -64 -45t-66 -45q-28 -18 -61 -41t-69 -45t-73 -39t-69 -23q-27 -7 -69 -7h-11q-50 1 -84 1q-84 -4 -168 -6t-172 -2q-40 0 -92 -1h-9q-46 0 -85 9q-12 2 -40 19t-63 42t-73 54t-73 56t-60 48t-35 29 q-10 106 -15 211t-5 211zM788 1688q36 36 69 72t65 76q42 54 90 102l96 96l142 -198q-50 -42 -95 -77t-91 -65t-95 -58t-107 -60z" />
<glyph unicode="&#xdb;" horiz-adv-x="1780" d="M154 634q0 206 15 408t33 406l412 10q-20 -128 -28 -271t-8 -275q0 -22 2 -77t8 -117t15 -114t23 -68q6 -6 31 -11t60 -9t75 -6t76 -3t64 -2t40 -1h34q24 0 49 1t47 3t30 8q24 16 36 78t18 136t6 142v98q0 46 1 92t1 92q0 94 -2 185t-6 185q42 -4 83 -5t83 -1q50 0 99 2 t97 12q42 -214 65 -433t23 -439q0 -114 -5 -226t-21 -226q-32 -24 -64 -45t-66 -45q-28 -18 -61 -41t-69 -45t-73 -39t-69 -23q-27 -7 -69 -7h-11q-50 1 -84 1q-84 -4 -168 -6t-172 -2q-40 0 -92 -1h-9q-46 0 -85 9q-12 2 -40 19t-63 42t-73 54t-73 56t-60 48t-35 29 q-10 106 -15 211t-5 211zM462 1680q100 110 199 217t203 211q102 -98 197 -199t193 -205l-188 -8l-198 222l-196 -232z" />
<glyph unicode="&#xdc;" horiz-adv-x="1780" d="M154 634q0 206 15 408t33 406l412 10q-20 -128 -28 -271t-8 -275q0 -22 2 -77t8 -117t15 -114t23 -68q6 -6 31 -11t60 -9t75 -6t76 -3t64 -2t40 -1h34q24 0 49 1t47 3t30 8q24 16 36 78t18 136t6 142v98q0 46 1 92t1 92q0 94 -2 185t-6 185q42 -4 83 -5t83 -1q50 0 99 2 t97 12q42 -214 65 -433t23 -439q0 -114 -5 -226t-21 -226q-32 -24 -64 -45t-66 -45q-28 -18 -61 -41t-69 -45t-73 -39t-69 -23q-27 -7 -69 -7h-11q-50 1 -84 1q-84 -4 -168 -6t-172 -2q-40 0 -92 -1h-9q-46 0 -85 9q-12 2 -40 19t-63 42t-73 54t-73 56t-60 48t-35 29 q-10 106 -15 211t-5 211zM474 1840q0 42 16 80t43 67t64 45t79 16q36 0 66 -16t52 -42t34 -60t12 -68q0 -76 -55 -128t-131 -52q-32 0 -64 12t-58 33t-42 50t-16 63zM954 1836q0 42 15 79t42 66t64 45t81 16q36 0 67 -16t53 -42t34 -59t12 -67q0 -38 -15 -71t-41 -58 t-59 -39t-71 -14q-34 0 -66 12t-58 33t-42 51t-16 64z" />
<glyph unicode="&#xdd;" horiz-adv-x="1648" d="M144 1540q96 -10 193 -18t193 -14q0 -94 5 -199t25 -195q10 -48 38 -83t67 -58t84 -34t91 -11q54 0 108 11t104 27q-8 150 -13 296t-19 294q60 2 120 5t120 3q94 0 190 -18q0 -86 3 -172t7 -172q4 -40 7 -81t5 -81q8 -136 26 -271t18 -271q0 -72 -22 -151t-64 -148 t-103 -120t-137 -67q-30 -6 -71 -10t-85 -6t-87 -4t-73 -2q-172 -8 -344 -9t-346 -1q-8 82 -15 162t-19 164q138 6 275 13t275 17q30 2 67 2t76 2t76 5t65 9q12 2 29 7t31 14t24 21t10 30q0 42 -9 93t-13 91q-150 -14 -301 -27t-303 -13q-104 0 -166 59t-90 155 q-6 22 -11 53t-8 64t-5 65t-4 54q-10 132 -15 260t-9 260zM646 1790q36 36 69 72t65 76q42 54 90 102l96 96l142 -198q-50 -42 -95 -77t-91 -65t-95 -58t-107 -60z" />
<glyph unicode="&#xde;" horiz-adv-x="1724" d="M184 1648q90 8 175 13t173 7l30 -392q150 16 303 30t307 14q54 0 115 -12t116 -38t98 -66t61 -96q14 -40 23 -89t15 -100t9 -100t3 -91q0 -88 -15 -160t-51 -126t-98 -90t-156 -50q-64 -10 -130 -15t-132 -5q-114 0 -230 12t-230 30l-12 -418q-58 -4 -113 -4h-113h-65 q-31 0 -65 -4q6 172 14 342t8 344v22q0 98 -6 194t-10 194q-4 164 -11 328t-13 326zM558 904l10 -318q76 -22 160 -41t162 -19h62q42 0 87 2t83 9t50 23q12 14 20 41t13 57t8 59t3 47q0 22 -4 50t-20 48q-40 46 -99 70t-119 24q-98 0 -209 -16t-207 -36z" />
<glyph unicode="&#xdf;" horiz-adv-x="2028" d="M52 608v54q0 70 7 138t11 138l142 4q0 32 2 78t8 93t17 92t27 75q44 84 100 133t122 75t143 34t163 8q72 0 153 -8t162 -26t155 -49t128 -79q16 -14 27 -40t17 -56t9 -58t3 -46q0 -24 -5 -58t-16 -69t-28 -63t-41 -40q-14 -6 -47 -11t-67 -8t-63 -5t-33 -4 q-14 -10 -18 -27t-4 -33q0 -22 8 -36q4 -6 45 -10t99 -7t127 -4t133 -2t113 -3t67 -4q52 -6 96 -24t72 -64q16 -28 27 -64t19 -75t11 -77t3 -70t-4 -76t-15 -88t-29 -83t-44 -59q-30 -24 -98 -40t-145 -26t-148 -14t-109 -4q-132 0 -264 15t-264 33v382q96 -20 195 -28 t195 -12q58 -4 114 -7t114 -3q12 0 47 2t73 7t71 14t39 23q4 16 4 28q0 14 -5 41t-15 37q-2 2 -17 3t-34 2t-36 2t-21 1q-62 2 -134 3t-145 5t-143 11t-130 21q-40 8 -71 18t-54 26t-39 41t-22 67q-4 18 -5 35t-1 35q0 30 5 69t17 77t32 69t52 43q14 6 40 9t54 6t52 7t36 10 q18 10 18 34q0 6 -1 15t-5 13t-30 8t-58 7t-62 4t-38 1q-68 0 -143 -14t-125 -64q-24 -22 -45 -63t-21 -75q0 -6 1 -12t1 -12l98 -986q-126 4 -251 -4t-251 -10l18 662z" />
<glyph unicode="&#xe0;" horiz-adv-x="1622" d="M62 970q8 76 13 154q3 43 3 86q0 34 -2 68q146 26 293 37t297 11q54 0 118 -1t128 -4t127 -9t117 -16q56 -10 111 -36t103 -64t84 -87t52 -105q2 -6 3 -20t1 -31v-31v-20q0 -168 -12 -334l-24 -332q-224 -20 -446 -34t-446 -14q-20 0 -74 1t-114 4t-114 8t-72 15 q-66 36 -92 91t-26 125q0 24 2 64t8 84t16 82t24 56q18 24 82 41t153 27t192 16t197 9t168 3h106q6 44 6 86v21q0 17 -2 21q-6 12 -38 20t-79 12t-102 7t-107 3h-92h-58q-126 0 -252 -5t-252 -9zM456 590q0 -14 2 -38t7 -50t11 -48t16 -32q8 -10 27 -15t41 -8t44 -4t34 -1 q48 0 103 4t112 9t111 12t100 13v256q-58 2 -116 3t-116 1q-12 0 -67 -1t-118 -5t-115 -10t-60 -18q-10 -16 -13 -33t-3 -35zM502 1732l144 198q46 -48 94 -96t92 -102q32 -40 65 -76t67 -72l-72 -112q-58 32 -107 60t-95 58t-92 65t-96 77z" />
<glyph unicode="&#xe1;" horiz-adv-x="1622" d="M62 970q8 76 13 154q3 43 3 86q0 34 -2 68q146 26 293 37t297 11q54 0 118 -1t128 -4t127 -9t117 -16q56 -10 111 -36t103 -64t84 -87t52 -105q2 -6 3 -20t1 -31v-31v-20q0 -168 -12 -334l-24 -332q-224 -20 -446 -34t-446 -14q-20 0 -74 1t-114 4t-114 8t-72 15 q-66 36 -92 91t-26 125q0 24 2 64t8 84t16 82t24 56q18 24 82 41t153 27t192 16t197 9t168 3h106q6 44 6 86v21q0 17 -2 21q-6 12 -38 20t-79 12t-102 7t-107 3h-92h-58q-126 0 -252 -5t-252 -9zM456 590q0 -14 2 -38t7 -50t11 -48t16 -32q8 -10 27 -15t41 -8t44 -4t34 -1 q48 0 103 4t112 9t111 12t100 13v256q-58 2 -116 3t-116 1q-12 0 -67 -1t-118 -5t-115 -10t-60 -18q-10 -16 -13 -33t-3 -35zM666 1564q36 36 69 72t65 76q42 54 90 102l96 96l142 -198q-50 -42 -95 -77t-91 -65t-95 -58t-107 -60z" />
<glyph unicode="&#xe2;" horiz-adv-x="1622" d="M62 970q8 76 13 154q3 43 3 86q0 34 -2 68q146 26 293 37t297 11q54 0 118 -1t128 -4t127 -9t117 -16q56 -10 111 -36t103 -64t84 -87t52 -105q2 -6 3 -20t1 -31v-31v-20q0 -168 -12 -334l-24 -332q-224 -20 -446 -34t-446 -14q-20 0 -74 1t-114 4t-114 8t-72 15 q-66 36 -92 91t-26 125q0 24 2 64t8 84t16 82t24 56q18 24 82 41t153 27t192 16t197 9t168 3h106q6 44 6 86v21q0 17 -2 21q-6 12 -38 20t-79 12t-102 7t-107 3h-92h-58q-126 0 -252 -5t-252 -9zM456 590q0 -14 2 -38t7 -50t11 -48t16 -32q8 -10 27 -15t41 -8t44 -4t34 -1 q48 0 103 4t112 9t111 12t100 13v256q-58 2 -116 3t-116 1q-12 0 -67 -1t-118 -5t-115 -10t-60 -18q-10 -16 -13 -33t-3 -35zM400 1496q100 110 199 217t203 211q102 -98 197 -199t193 -205l-188 -8l-198 222l-196 -232z" />
<glyph unicode="&#xe3;" horiz-adv-x="1622" d="M62 970q8 76 13 154q3 43 3 86q0 34 -2 68q146 26 293 37t297 11q54 0 118 -1t128 -4t127 -9t117 -16q56 -10 111 -36t103 -64t84 -87t52 -105q2 -6 3 -20t1 -31v-31v-20q0 -168 -12 -334l-24 -332q-224 -20 -446 -34t-446 -14q-20 0 -74 1t-114 4t-114 8t-72 15 q-66 36 -92 91t-26 125q0 24 2 64t8 84t16 82t24 56q18 24 82 41t153 27t192 16t197 9t168 3h106q6 44 6 86v21q0 17 -2 21q-6 12 -38 20t-79 12t-102 7t-107 3h-92h-58q-126 0 -252 -5t-252 -9zM456 590q0 -14 2 -38t7 -50t11 -48t16 -32q8 -10 27 -15t41 -8t44 -4t34 -1 q48 0 103 4t112 9t111 12t100 13v256q-58 2 -116 3t-116 1q-12 0 -67 -1t-118 -5t-115 -10t-60 -18q-10 -16 -13 -33t-3 -35zM366 1606q18 12 60 41t88 59t88 53t58 23q28 0 66 -19t79 -41t80 -41t67 -19q20 0 47 12t54 28t51 35t40 31l120 -132q-22 -16 -64 -43t-87 -53 t-88 -45t-69 -19q-30 0 -67 21t-75 46t-73 46t-61 21q-22 0 -50 -15t-56 -37t-52 -45t-38 -37z" />
<glyph unicode="&#xe4;" horiz-adv-x="1622" d="M62 970q8 76 13 154q3 43 3 86q0 34 -2 68q146 26 293 37t297 11q54 0 118 -1t128 -4t127 -9t117 -16q56 -10 111 -36t103 -64t84 -87t52 -105q2 -6 3 -20t1 -31v-31v-20q0 -168 -12 -334l-24 -332q-224 -20 -446 -34t-446 -14q-20 0 -74 1t-114 4t-114 8t-72 15 q-66 36 -92 91t-26 125q0 24 2 64t8 84t16 82t24 56q18 24 82 41t153 27t192 16t197 9t168 3h106q6 44 6 86v21q0 17 -2 21q-6 12 -38 20t-79 12t-102 7t-107 3h-92h-58q-126 0 -252 -5t-252 -9zM456 590q0 -14 2 -38t7 -50t11 -48t16 -32q8 -10 27 -15t41 -8t44 -4t34 -1 q48 0 103 4t112 9t111 12t100 13v256q-58 2 -116 3t-116 1q-12 0 -67 -1t-118 -5t-115 -10t-60 -18q-10 -16 -13 -33t-3 -35zM392 1634q0 42 16 80t43 67t64 45t79 16q36 0 66 -16t52 -42t34 -60t12 -68q0 -76 -55 -128t-131 -52q-32 0 -64 12t-58 33t-42 50t-16 63z M872 1630q0 42 15 79t42 66t64 45t81 16q36 0 67 -16t53 -42t34 -59t12 -67q0 -38 -15 -71t-41 -58t-59 -39t-71 -14q-34 0 -66 12t-58 33t-42 51t-16 64z" />
<glyph unicode="&#xe5;" horiz-adv-x="1622" d="M62 970q8 76 13 154t1 154q136 24 273 35t275 13q-58 26 -101 66t-43 96v8q0 4 2 8q10 54 40 97t73 72t94 45t105 16q46 0 94 -13t88 -38t65 -64t25 -93q0 -76 -44 -127t-108 -79q64 -4 126 -9t116 -15q56 -10 111 -36t103 -64t84 -87t52 -105q2 -6 3 -20t1 -31v-31v-20 q0 -168 -12 -334l-24 -332q-224 -20 -446 -34t-446 -14q-20 0 -74 1t-114 4t-114 8t-72 15q-66 36 -92 91t-26 125q0 24 2 64t8 84t16 82t24 56q18 24 82 41t153 27t192 16t197 9t168 3h106q6 44 6 86v21q0 17 -2 21q-6 12 -38 20t-79 12t-102 7t-107 3h-92h-58 q-126 0 -252 -5t-252 -9zM456 590q0 -14 2 -38t7 -50t11 -48t16 -32q8 -10 27 -15t41 -8t44 -4t34 -1q48 0 103 4t112 9t111 12t100 13v256q-58 2 -116 3t-116 1q-12 0 -67 -1t-118 -5t-115 -10t-60 -18q-10 -16 -13 -33t-3 -35zM652 1490q0 -58 19 -73t77 -15q12 0 36 2 t49 5t47 8t30 11q14 10 16 33t2 39q0 42 -5 68t-19 39t-39 18t-67 5q-10 0 -26 -1t-33 -2t-32 -4t-23 -9q-10 -6 -16 -22t-10 -35t-5 -38t-1 -29z" />
<glyph unicode="&#xe6;" horiz-adv-x="2712" d="M62 320q0 120 43 182t113 88t157 28t177 2q120 0 239 -4t239 -28q2 6 2 18q0 22 -10 47t-25 47t-33 42t-36 32q-12 8 -35 14t-48 8t-49 3t-36 1q-152 0 -305 -29t-299 -67q-16 98 -25 189t-9 191q134 20 267 34t269 14q128 0 258 -20t244 -84q34 -20 70 -49t68 -64 t54 -74t30 -77q10 44 32 95t53 99t69 87t82 61q40 20 121 33t171 21t174 11t130 3h88q54 0 108 -6t101 -23t65 -49q20 -36 33 -82t20 -95t9 -97t2 -86q0 -44 -2 -88t-6 -86q-106 -4 -210 -8t-210 -8q-150 -6 -301 -18t-301 -22q0 -36 15 -69t39 -60t54 -46t62 -29 q30 -10 80 -13t84 -3q132 0 262 18t260 44l32 -348q-122 -10 -244 -17t-242 -7q-28 0 -80 1t-109 5t-109 10t-78 18q-62 28 -114 63t-82 99q-4 4 -5 12t-5 18t-6 22l-4 -46q-4 -46 -7 -93t-9 -93q-212 -20 -422 -35t-422 -15q-20 0 -60 1t-84 3t-83 6t-57 12q-58 22 -94 45 t-59 54t-35 74t-20 105q-6 36 -6 78zM448 312q0 -16 3 -40t9 -49t15 -46t23 -33q8 -6 27 -10t42 -6t44 -3t31 -1q30 0 85 3t113 9t110 17t76 27q12 8 19 26t12 38t6 40t1 32q0 64 -16 132q-26 18 -75 21t-81 3q-26 0 -88 -4t-130 -13t-125 -21t-73 -30q-18 -20 -23 -45 t-5 -47zM1720 712l636 26q4 16 4 28q0 42 -40 63t-94 30t-107 10t-79 1h-56q-34 0 -71 -3t-69 -8t-50 -15q-30 -16 -49 -58t-25 -74z" />
<glyph unicode="&#xe7;" horiz-adv-x="1444" d="M52 772q0 78 2 146t22 125t65 102t129 79q38 16 114 25t159 14t159 7t118 2q140 0 279 -6t279 -16q6 -50 10 -99t4 -97q0 -92 -24 -178q-14 -2 -83 -5t-164 -8t-204 -12t-202 -15t-158 -17t-73 -17q-32 -28 -48 -68t-16 -80q0 -24 5 -37t17 -29q6 -6 42 -10t80 -6t82 -3 t44 -1q144 0 288 6t288 16l16 -344q-112 -10 -223 -19t-225 -15v-172q50 -6 90 -18t70 -35t48 -59t28 -90q0 -6 1 -11t1 -11q0 -24 -5 -57t-16 -66t-27 -60t-38 -39t-72 -23t-107 -20t-110 -17t-83 -12l-8 188q16 2 54 9t79 15t76 16t43 12q22 12 28 28t6 38q0 52 -42 82 q-10 6 -44 9t-75 4t-79 0t-54 -1v180q0 26 1 51t1 49q-30 0 -61 -1t-61 -1h-29q-19 0 -41 1t-42 3t-28 4q-42 12 -83 27t-77 38t-63 55t-39 78q-8 30 -13 79t-7 101t-3 102t-1 84z" />
<glyph unicode="&#xe8;" horiz-adv-x="1514" d="M52 756q0 106 23 197t85 177q42 60 124 100t178 63t192 32t166 9q62 0 152 -11t179 -37t161 -67t98 -101q4 -12 9 -41t11 -66t11 -79t9 -80t7 -68t5 -42q-262 -14 -522 -23t-522 -19q-2 -8 -2 -16v-16q0 -68 31 -104t77 -51t102 -17t104 -2q134 0 268 9t270 19l16 -318 q-132 -6 -263 -10t-263 -4q-28 0 -103 1t-160 6t-159 13t-98 22q-62 36 -97 92t-54 122t-26 135t-9 133q-1 7 -1 14q0 5 0.5 14.5t0.5 13.5zM516 928q0 -32 6 -62l668 22q-12 88 -45 139t-82 76t-112 32t-135 7q-24 0 -60 -1t-72 -6t-68 -15t-50 -28q-14 -12 -23 -33 t-15 -45t-9 -47t-3 -39zM544 1712l144 198q46 -48 94 -96t92 -102q32 -40 65 -76t67 -72l-72 -112q-58 32 -107 60t-95 58t-92 65t-96 77z" />
<glyph unicode="&#xe9;" horiz-adv-x="1514" d="M52 756q0 106 23 197t85 177q42 60 124 100t178 63t192 32t166 9q62 0 152 -11t179 -37t161 -67t98 -101q4 -12 9 -41t11 -66t11 -79t9 -80t7 -68t5 -42q-262 -14 -522 -23t-522 -19q-2 -8 -2 -16v-16q0 -68 31 -104t77 -51t102 -17t104 -2q134 0 268 9t270 19l16 -318 q-132 -6 -263 -10t-263 -4q-28 0 -103 1t-160 6t-159 13t-98 22q-62 36 -97 92t-54 122t-26 135t-9 133q-1 7 -1 14q0 5 0.5 14.5t0.5 13.5zM516 928q0 -32 6 -62l668 22q-12 88 -45 139t-82 76t-112 32t-135 7q-24 0 -60 -1t-72 -6t-68 -15t-50 -28q-14 -12 -23 -33 t-15 -45t-9 -47t-3 -39zM584 1564q36 36 69 72t65 76q42 54 90 102l96 96l142 -198q-50 -42 -95 -77t-91 -65t-95 -58t-107 -60z" />
<glyph unicode="&#xea;" horiz-adv-x="1514" d="M52 756q0 106 23 197t85 177q42 60 124 100t178 63t192 32t166 9q62 0 152 -11t179 -37t161 -67t98 -101q4 -12 9 -41t11 -66t11 -79t9 -80t7 -68t5 -42q-262 -14 -522 -23t-522 -19q-2 -8 -2 -16v-16q0 -68 31 -104t77 -51t102 -17t104 -2q134 0 268 9t270 19l16 -318 q-132 -6 -263 -10t-263 -4q-28 0 -103 1t-160 6t-159 13t-98 22q-62 36 -97 92t-54 122t-26 135t-9 133q-1 7 -1 14q0 5 0.5 14.5t0.5 13.5zM516 928q0 -32 6 -62l668 22q-12 88 -45 139t-82 76t-112 32t-135 7q-24 0 -60 -1t-72 -6t-68 -15t-50 -28q-14 -12 -23 -33 t-15 -45t-9 -47t-3 -39zM400 1496q100 110 199 217t203 211q102 -98 197 -199t193 -205l-188 -8l-198 222l-196 -232z" />
<glyph unicode="&#xeb;" horiz-adv-x="1514" d="M52 756q0 106 23 197t85 177q42 60 124 100t178 63t192 32t166 9q62 0 152 -11t179 -37t161 -67t98 -101q4 -12 9 -41t11 -66t11 -79t9 -80t7 -68t5 -42q-262 -14 -522 -23t-522 -19q-2 -8 -2 -16v-16q0 -68 31 -104t77 -51t102 -17t104 -2q134 0 268 9t270 19l16 -318 q-132 -6 -263 -10t-263 -4q-28 0 -103 1t-160 6t-159 13t-98 22q-62 36 -97 92t-54 122t-26 135t-9 133q-1 7 -1 14q0 5 0.5 14.5t0.5 13.5zM516 928q0 -32 6 -62l668 22q-12 88 -45 139t-82 76t-112 32t-135 7q-24 0 -60 -1t-72 -6t-68 -15t-50 -28q-14 -12 -23 -33 t-15 -45t-9 -47t-3 -39zM372 1634q0 42 16 80t43 67t64 45t79 16q36 0 66 -16t52 -42t34 -60t12 -68q0 -76 -55 -128t-131 -52q-32 0 -64 12t-58 33t-42 50t-16 63zM852 1630q0 42 15 79t42 66t64 45t81 16q36 0 67 -16t53 -42t34 -59t12 -67q0 -38 -15 -71t-41 -58t-59 -39 t-71 -14q-34 0 -66 12t-58 33t-42 51t-16 64z" />
<glyph unicode="&#xec;" horiz-adv-x="648" d="M104 974q106 4 209 12t211 12q-10 -106 -16 -210l-12 -208q-8 -122 -27 -242t-43 -240l-306 -32q0 64 1 126t1 126q0 164 -6 328zM-10 1490l144 198q46 -48 94 -96t92 -102q32 -40 65 -76t67 -72l-72 -112q-58 32 -107 60t-95 58t-92 65t-96 77z" />
<glyph unicode="&#xed;" horiz-adv-x="648" d="M104 974q106 4 209 12t211 12q-10 -106 -16 -210l-12 -208q-8 -122 -27 -242t-43 -240l-306 -32q0 64 1 126t1 126q0 164 -6 328zM216 1362q36 36 69 72t65 76q42 54 90 102l96 96l142 -198q-50 -42 -95 -77t-91 -65t-95 -58t-107 -60z" />
<glyph unicode="&#xee;" horiz-adv-x="648" d="M104 974q106 4 209 12t211 12q-10 -106 -16 -210l-12 -208q-8 -122 -27 -242t-43 -240l-306 -32q0 64 1 126t1 126q0 164 -6 328zM-70 1232q100 110 199 217t203 211q102 -98 197 -199t193 -205l-188 -8l-198 222l-196 -232z" />
<glyph unicode="&#xef;" horiz-adv-x="648" d="M104 974q106 4 209 12t211 12q-10 -106 -16 -210l-12 -208q-8 -122 -27 -242t-43 -240l-306 -32q0 64 1 126t1 126q0 164 -6 328zM-98 1392q0 42 16 80t43 67t64 45t79 16q36 0 66 -16t52 -42t34 -60t12 -68q0 -76 -55 -128t-131 -52q-32 0 -64 12t-58 33t-42 50t-16 63z M382 1388q0 42 15 79t42 66t64 45t81 16q36 0 67 -16t53 -42t34 -59t12 -67q0 -38 -15 -71t-41 -58t-59 -39t-71 -14q-34 0 -66 12t-58 33t-42 51t-16 64z" />
<glyph unicode="&#xf0;" horiz-adv-x="1650" d="M82 556q0 38 2 105t12 137t29 130t55 84q16 10 60 18t104 14t128 9t133 4t121 1t90 -2q22 0 61 -1t85 -3q-22 28 -45 56t-51 58l-260 -32l-12 160l120 18q-36 36 -84 68l510 94q14 -10 34 -22q30 -18 84 -70l214 28l36 -166l-122 -16q44 -66 82 -152t64 -196 q36 -154 36 -316q2 -18 1 -36t-3 -36q-2 -28 -10 -92t-22 -133t-34 -127t-44 -74q-12 -8 -81 -15t-168 -13t-215 -10t-221 -7t-184 -5t-105 -2h-41q-29 0 -61 1t-60 3t-40 6q-28 10 -56 33t-52 52t-43 61t-27 60q-6 20 -10 65t-6 95t-3 96t-1 70zM462 598q0 -18 3 -65 t8 -100t13 -97t20 -56q14 -14 53 -24t84 -17t87 -10t60 -3q32 0 76 2t89 10t85 21t64 37q14 14 22 42t12 60t5 63t1 49q0 24 -2 56t-6 66t-12 64t-20 52q-16 26 -62 40t-101 21t-108 9t-79 2q-14 0 -50 -1t-75 -4t-73 -8t-44 -11q-18 -10 -28 -35t-15 -55t-6 -59t-1 -49z " />
<glyph unicode="&#xf1;" horiz-adv-x="1382" d="M40 1310q40 2 80 3t80 1q52 0 105 -3t105 -5l14 -154q56 92 152 154t206 62q56 0 116 -6t115 -24t104 -50t83 -82q16 -24 27 -71t19 -106t13 -125t7 -126t3 -109t1 -75v-109q0 -55 -4 -109l-446 -28q8 104 13 206t5 208v34q0 24 -2 51t-4 51t-4 34q-10 28 -21 48t-26 32 t-37 17t-54 5q-24 0 -61 -4t-75 -12t-72 -20t-48 -28l-4 -590q-4 8 -23 8h-27q-60 0 -124 -5t-124 -13q-26 236 -46 470t-46 470zM182 1626q18 12 60 41t88 59t88 53t58 23q28 0 66 -19t79 -41t80 -41t67 -19q20 0 47 12t54 28t51 35t40 31l120 -132q-22 -16 -64 -43 t-87 -53t-88 -45t-69 -19q-30 0 -67 21t-75 46t-73 46t-61 21q-22 0 -50 -15t-56 -37t-52 -45t-38 -37z" />
<glyph unicode="&#xf2;" horiz-adv-x="1672" d="M82 794q0 38 2 105t12 137t29 131t55 85q16 10 60 18t104 14t128 9t133 4t121 1t90 -2q30 -2 86 -3t125 -3t143 -7t138 -13t113 -21t65 -31q26 -28 42 -84t25 -119t12 -124t3 -99v-31q0 -15 -2 -31q-2 -28 -10 -92t-22 -133t-34 -127t-44 -74q-12 -8 -81 -14t-168 -12 t-215 -10t-221 -7t-184 -5t-105 -2h-41q-29 0 -61 1t-60 3t-40 6q-28 10 -56 33t-52 52t-43 60t-27 59q-6 22 -10 67t-6 94t-3 95t-1 70zM462 838q0 -18 3 -65t8 -100t13 -97t20 -56q14 -16 53 -26t84 -17t87 -10t60 -3q32 0 76 2t89 10t85 22t64 38q14 14 22 42t12 60t5 63 t1 49q0 24 -2 56t-6 65t-12 64t-20 51q-16 26 -62 40t-101 21t-108 9t-79 2q-14 0 -50 -1t-75 -3t-73 -7t-44 -11q-18 -12 -28 -37t-15 -55t-6 -59t-1 -47zM544 1712l144 198q46 -48 94 -96t92 -102q32 -40 65 -76t67 -72l-72 -112q-58 32 -107 60t-95 58t-92 65t-96 77z " />
<glyph unicode="&#xf3;" horiz-adv-x="1672" d="M82 794q0 38 2 105t12 137t29 131t55 85q16 10 60 18t104 14t128 9t133 4t121 1t90 -2q30 -2 86 -3t125 -3t143 -7t138 -13t113 -21t65 -31q26 -28 42 -84t25 -119t12 -124t3 -99v-31q0 -15 -2 -31q-2 -28 -10 -92t-22 -133t-34 -127t-44 -74q-12 -8 -81 -14t-168 -12 t-215 -10t-221 -7t-184 -5t-105 -2h-41q-29 0 -61 1t-60 3t-40 6q-28 10 -56 33t-52 52t-43 60t-27 59q-6 22 -10 67t-6 94t-3 95t-1 70zM462 838q0 -18 3 -65t8 -100t13 -97t20 -56q14 -16 53 -26t84 -17t87 -10t60 -3q32 0 76 2t89 10t85 22t64 38q14 14 22 42t12 60t5 63 t1 49q0 24 -2 56t-6 65t-12 64t-20 51q-16 26 -62 40t-101 21t-108 9t-79 2q-14 0 -50 -1t-75 -3t-73 -7t-44 -11q-18 -12 -28 -37t-15 -55t-6 -59t-1 -47zM666 1564q36 36 69 72t65 76q42 54 90 102l96 96l142 -198q-50 -42 -95 -77t-91 -65t-95 -58t-107 -60z" />
<glyph unicode="&#xf4;" horiz-adv-x="1672" d="M82 794q0 38 2 105t12 137t29 131t55 85q16 10 60 18t104 14t128 9t133 4t121 1t90 -2q30 -2 86 -3t125 -3t143 -7t138 -13t113 -21t65 -31q26 -28 42 -84t25 -119t12 -124t3 -99v-31q0 -15 -2 -31q-2 -28 -10 -92t-22 -133t-34 -127t-44 -74q-12 -8 -81 -14t-168 -12 t-215 -10t-221 -7t-184 -5t-105 -2h-41q-29 0 -61 1t-60 3t-40 6q-28 10 -56 33t-52 52t-43 60t-27 59q-6 22 -10 67t-6 94t-3 95t-1 70zM462 838q0 -18 3 -65t8 -100t13 -97t20 -56q14 -16 53 -26t84 -17t87 -10t60 -3q32 0 76 2t89 10t85 22t64 38q14 14 22 42t12 60t5 63 t1 49q0 24 -2 56t-6 65t-12 64t-20 51q-16 26 -62 40t-101 21t-108 9t-79 2q-14 0 -50 -1t-75 -3t-73 -7t-44 -11q-18 -12 -28 -37t-15 -55t-6 -59t-1 -47zM462 1496q100 110 199 217t203 211q102 -98 197 -199t193 -205l-188 -8l-198 222l-196 -232z" />
<glyph unicode="&#xf5;" horiz-adv-x="1672" d="M82 794q0 38 2 105t12 137t29 131t55 85q16 10 60 18t104 14t128 9t133 4t121 1t90 -2q30 -2 86 -3t125 -3t143 -7t138 -13t113 -21t65 -31q26 -28 42 -84t25 -119t12 -124t3 -99v-31q0 -15 -2 -31q-2 -28 -10 -92t-22 -133t-34 -127t-44 -74q-12 -8 -81 -14t-168 -12 t-215 -10t-221 -7t-184 -5t-105 -2h-41q-29 0 -61 1t-60 3t-40 6q-28 10 -56 33t-52 52t-43 60t-27 59q-6 22 -10 67t-6 94t-3 95t-1 70zM462 838q0 -18 3 -65t8 -100t13 -97t20 -56q14 -16 53 -26t84 -17t87 -10t60 -3q32 0 76 2t89 10t85 22t64 38q14 14 22 42t12 60t5 63 t1 49q0 24 -2 56t-6 65t-12 64t-20 51q-16 26 -62 40t-101 21t-108 9t-79 2q-14 0 -50 -1t-75 -3t-73 -7t-44 -11q-18 -12 -28 -37t-15 -55t-6 -59t-1 -47zM428 1564q18 12 60 41t88 59t88 53t58 23q28 0 66 -19t79 -41t80 -41t67 -19q20 0 47 12t54 28t51 35t40 31 l120 -132q-22 -16 -64 -43t-87 -53t-88 -45t-69 -19q-30 0 -67 21t-75 46t-73 46t-61 21q-22 0 -50 -15t-56 -37t-52 -45t-38 -37z" />
<glyph unicode="&#xf6;" horiz-adv-x="1672" d="M82 794q0 38 2 105t12 137t29 131t55 85q16 10 60 18t104 14t128 9t133 4t121 1t90 -2q30 -2 86 -3t125 -3t143 -7t138 -13t113 -21t65 -31q26 -28 42 -84t25 -119t12 -124t3 -99v-31q0 -15 -2 -31q-2 -28 -10 -92t-22 -133t-34 -127t-44 -74q-12 -8 -81 -14t-168 -12 t-215 -10t-221 -7t-184 -5t-105 -2h-41q-29 0 -61 1t-60 3t-40 6q-28 10 -56 33t-52 52t-43 60t-27 59q-6 22 -10 67t-6 94t-3 95t-1 70zM462 838q0 -18 3 -65t8 -100t13 -97t20 -56q14 -16 53 -26t84 -17t87 -10t60 -3q32 0 76 2t89 10t85 22t64 38q14 14 22 42t12 60t5 63 t1 49q0 24 -2 56t-6 65t-12 64t-20 51q-16 26 -62 40t-101 21t-108 9t-79 2q-14 0 -50 -1t-75 -3t-73 -7t-44 -11q-18 -12 -28 -37t-15 -55t-6 -59t-1 -47zM414 1634q0 42 16 80t43 67t64 45t79 16q36 0 66 -16t52 -42t34 -60t12 -68q0 -76 -55 -128t-131 -52q-32 0 -64 12 t-58 33t-42 50t-16 63zM894 1630q0 42 15 79t42 66t64 45t81 16q36 0 67 -16t53 -42t34 -59t12 -67q0 -38 -15 -71t-41 -58t-59 -39t-71 -14q-34 0 -66 12t-58 33t-42 51t-16 64z" />
<glyph unicode="&#xf7;" horiz-adv-x="904" d="M62 824q38 -2 77 -2h79q152 0 302 11t304 21l18 -172q-194 -4 -384 -11t-384 -23zM318 422q0 30 16 58t42 49t57 34t59 13q26 0 48 -14t38 -36t26 -47t10 -49q0 -28 -15 -56t-38 -50t-52 -35t-57 -13t-52 13t-42 34t-29 47t-11 52zM324 1062q0 30 16 57t42 48t56 34 t58 13q26 0 48 -14t39 -35t27 -47t10 -48q0 -28 -15 -56t-39 -50t-53 -35t-55 -13t-50 13t-43 34t-30 47t-11 52z" />
<glyph unicode="&#xf8;" horiz-adv-x="1660" d="M82 -74l138 138q-40 34 -72 80t-46 86q-6 20 -10 65t-6 95t-3 96t-1 70q0 38 2 105t12 137t29 130t55 84q16 10 60 18t104 14t128 9t133 4t121 1t90 -2q24 0 64 -1t90 -3t107 -4t115 -6l136 136l240 -98l-94 -90l6 -6l6 -6q26 -28 42 -84t25 -119t12 -124t3 -99v-30 q0 -14 -2 -30q-2 -28 -10 -92t-22 -133t-34 -127t-44 -74q-12 -8 -81 -15t-168 -13t-215 -10t-221 -7t-184 -5t-105 -2h-6l-140 -134zM462 598q0 -12 2 -44t5 -70t8 -79t11 -71l470 472q-60 10 -118 12t-86 2q-14 0 -50 -1t-75 -4t-73 -8t-44 -11q-18 -10 -28 -35t-15 -55 t-6 -59t-1 -49zM698 232q30 -4 55 -5t37 -1q32 0 76 2t89 10t85 21t64 37q14 14 22 42t12 60t5 63t1 49q0 28 -2 67t-10 79z" />
<glyph unicode="&#xf9;" horiz-adv-x="1566" d="M92 536v90q0 150 12 296t34 290q56 6 120 6q52 0 104 -7t104 -17q0 -10 2 -58t5 -114t7 -141t9 -139t12 -109t15 -49q30 -18 66 -20t70 -2q24 0 75 3t105 10t100 18t62 27q6 6 9 38t4 70t2 71t1 39q0 90 -4 178t-8 178l388 18q12 -140 22 -279t26 -279q6 -46 7 -94t3 -96 q4 -90 5 -180t3 -182l-338 -14l-24 202q-38 -52 -91 -88t-114 -58t-126 -31t-127 -9q-48 0 -119 8t-144 23t-135 39t-90 56q-22 24 -33 77t-15 113t-4 116zM420 1548l144 198q46 -48 94 -96t92 -102q32 -40 65 -76t67 -72l-72 -112q-58 32 -107 60t-95 58t-92 65t-96 77z " />
<glyph unicode="&#xfa;" horiz-adv-x="1566" d="M92 536v90q0 150 12 296t34 290q56 6 120 6q52 0 104 -7t104 -17q0 -10 2 -58t5 -114t7 -141t9 -139t12 -109t15 -49q30 -18 66 -20t70 -2q24 0 75 3t105 10t100 18t62 27q6 6 9 38t4 70t2 71t1 39q0 90 -4 178t-8 178l388 18q12 -140 22 -279t26 -279q6 -46 7 -94t3 -96 q4 -90 5 -180t3 -182l-338 -14l-24 202q-38 -52 -91 -88t-114 -58t-126 -31t-127 -9q-48 0 -119 8t-144 23t-135 39t-90 56q-22 24 -33 77t-15 113t-4 116zM646 1400q36 36 69 72t65 76q42 54 90 102l96 96l142 -198q-50 -42 -95 -77t-91 -65t-95 -58t-107 -60z" />
<glyph unicode="&#xfb;" horiz-adv-x="1566" d="M92 536v90q0 150 12 296t34 290q56 6 120 6q52 0 104 -7t104 -17q0 -10 2 -58t5 -114t7 -141t9 -139t12 -109t15 -49q30 -18 66 -20t70 -2q24 0 75 3t105 10t100 18t62 27q6 6 9 38t4 70t2 71t1 39q0 90 -4 178t-8 178l388 18q12 -140 22 -279t26 -279q6 -46 7 -94t3 -96 q4 -90 5 -180t3 -182l-338 -14l-24 202q-38 -52 -91 -88t-114 -58t-126 -31t-127 -9q-48 0 -119 8t-144 23t-135 39t-90 56q-22 24 -33 77t-15 113t-4 116zM338 1454q100 110 199 217t203 211q102 -98 197 -199t193 -205l-188 -8l-198 222l-196 -232z" />
<glyph unicode="&#xfc;" horiz-adv-x="1566" d="M92 536v90q0 150 12 296t34 290q56 6 120 6q52 0 104 -7t104 -17q0 -10 2 -58t5 -114t7 -141t9 -139t12 -109t15 -49q30 -18 66 -20t70 -2q24 0 75 3t105 10t100 18t62 27q6 6 9 38t4 70t2 71t1 39q0 90 -4 178t-8 178l388 18q12 -140 22 -279t26 -279q6 -46 7 -94t3 -96 q4 -90 5 -180t3 -182l-338 -14l-24 202q-38 -52 -91 -88t-114 -58t-126 -31t-127 -9q-48 0 -119 8t-144 23t-135 39t-90 56q-22 24 -33 77t-15 113t-4 116zM332 1574q0 42 16 80t43 67t64 45t79 16q36 0 66 -16t52 -42t34 -60t12 -68q0 -76 -55 -128t-131 -52q-32 0 -64 12 t-58 33t-42 50t-16 63zM812 1570q0 42 15 79t42 66t64 45t81 16q36 0 67 -16t53 -42t34 -59t12 -67q0 -38 -15 -71t-41 -58t-59 -39t-71 -14q-34 0 -66 12t-58 33t-42 51t-16 64z" />
<glyph unicode="&#xfd;" horiz-adv-x="1596" d="M72 708q0 162 22 323t56 319l422 -4q-34 -126 -60 -256t-26 -262q0 -70 10 -114t36 -71t72 -37t116 -10q28 0 69 4t84 11t82 19t61 30q8 6 14 40t10 81t6 101t3 102t1 83v45v135q0 67 -4 135q98 -10 193 -17t193 -11q8 -194 17 -384t19 -384q4 -48 4 -97v-95v-64 q0 -42 -2 -95t-5 -110t-7 -108t-11 -90t-15 -55q-34 -54 -63 -83t-63 -41t-77 -13t-101 -1q-192 0 -382 15t-380 35v274q18 0 79 1t143 3t174 6t172 10t138 14t72 20q18 14 29 43t16 61t7 64t2 52v38q0 18 -2 40q-30 -68 -80 -102t-112 -48t-130 -15t-130 -1q-130 0 -251 11 t-214 57t-150 139t-57 257zM688 1606q36 36 69 72t65 76q42 54 90 102l96 96l142 -198q-50 -42 -95 -77t-91 -65t-95 -58t-107 -60z" />
<glyph unicode="&#xfe;" horiz-adv-x="1610" d="M102 1490q100 8 198 14t198 14l14 -438q138 14 277 25t279 11q18 0 39 1t39 -3q48 -10 98 -25t94 -39t78 -60t52 -88q12 -40 22 -89t16 -100t9 -100t3 -91q0 -28 -1 -61t-6 -67t-14 -65t-25 -55q-34 -50 -64 -85t-65 -58t-79 -37t-104 -22q-90 -14 -178 -25t-178 -11 q-40 0 -82 5t-78 25q-20 10 -43 27t-45 36t-43 38t-37 33l-12 -502q-56 -4 -112 -3t-114 1q-34 0 -65 -1t-65 -3q8 172 15 343t7 341v26q0 274 -11 544t-17 544zM458 650l18 -270q74 -22 159 -40t161 -18h62q42 0 87 2t84 9t51 21q10 12 18 39t14 58t9 61t3 48q0 22 -4 50 t-20 48q-40 46 -100 70t-118 24q-48 0 -104 -9t-112 -24t-110 -33t-98 -36z" />
<glyph unicode="&#xff;" horiz-adv-x="1596" d="M72 708q0 162 22 323t56 319l422 -4q-34 -126 -60 -256t-26 -262q0 -70 10 -114t36 -71t72 -37t116 -10q28 0 69 4t84 11t82 19t61 30q8 6 14 40t10 81t6 101t3 102t1 83v45v135q0 67 -4 135q98 -10 193 -17t193 -11q8 -194 17 -384t19 -384q4 -48 4 -97v-95v-64 q0 -42 -2 -95t-5 -110t-7 -108t-11 -90t-15 -55q-34 -54 -63 -83t-63 -41t-77 -13t-101 -1q-192 0 -382 15t-380 35v274q18 0 79 1t143 3t174 6t172 10t138 14t72 20q18 14 29 43t16 61t7 64t2 52v38q0 18 -2 40q-30 -68 -80 -102t-112 -48t-130 -15t-130 -1q-130 0 -251 11 t-214 57t-150 139t-57 257zM372 1696q0 42 16 80t43 67t64 45t79 16q36 0 66 -16t52 -42t34 -60t12 -68q0 -76 -55 -128t-131 -52q-32 0 -64 12t-58 33t-42 50t-16 63zM852 1692q0 42 15 79t42 66t64 45t81 16q36 0 67 -16t53 -42t34 -59t12 -67q0 -38 -15 -71t-41 -58 t-59 -39t-71 -14q-34 0 -66 12t-58 33t-42 51t-16 64z" />
<glyph unicode="&#x131;" horiz-adv-x="648" d="M104 974q106 4 209 12t211 12q-10 -106 -16 -210l-12 -208q-8 -122 -27 -242t-43 -240l-306 -32q0 64 1 126t1 126q0 164 -6 328z" />
<glyph unicode="&#x152;" horiz-adv-x="2572" d="M122 770q0 72 23 163t61 182t87 171t101 132q28 28 86 44t123 25t127 11t100 2q30 0 90 -2t124 -8t121 -18t81 -30q14 -12 29 -30t30 -39t28 -42t21 -37l-4 158q158 -2 316 -1t318 1q120 0 241 -4t241 -10l24 -266q-198 -10 -390 -23t-388 -29l-6 -158l518 34 q10 -68 14 -134t4 -134v-61q0 -29 -2 -59l-478 -84l28 -250q154 12 305 32t303 30q14 -100 29 -200t39 -198q-84 2 -166 2h-166q-200 0 -397 -2t-397 -2l4 172q-10 -12 -33 -38t-49 -52t-52 -48t-42 -24q-60 -10 -129 -16t-140 -9t-141 -5t-130 -2h-40q-24 0 -50 2t-49 5 t-37 7q-62 22 -110 78t-84 130t-62 161t-43 172t-24 164t-7 137zM544 826q0 -18 2 -64t6 -107t11 -127t17 -122t24 -95t34 -43q28 -8 60 -7t60 1q30 0 100 3t145 12t137 25t78 44q16 26 26 68t15 87t7 89t2 74q0 24 -3 82t-9 121t-17 116t-27 71q-14 16 -59 24t-97 12 t-101 5t-69 1q-16 0 -60 -1t-93 -3t-91 -6t-54 -10q-16 -10 -25 -44t-13 -74t-5 -78t-1 -54z" />
<glyph unicode="&#x153;" horiz-adv-x="2718" d="M82 456q0 48 5 139t21 187t46 174t82 100q28 12 88 22t135 17t158 13t160 9t140 5t99 2q54 0 108 -2t106 -6q26 -4 48 -22q32 -24 55 -62t38 -81t24 -87t15 -82q20 90 66 168t116 138q10 10 24 20t28 16q40 20 121 33t171 21t174 11t130 3h88q54 0 109 -6t101 -23t66 -51 q20 -36 32 -81t19 -94t9 -97t2 -86q0 -44 -2 -88t-6 -86q-104 -4 -209 -7t-213 -7q-150 -8 -300 -20t-300 -22q2 -72 53 -127t117 -77q32 -10 82 -12t80 -2q132 0 263 17t261 43l34 -348q-122 -10 -244 -17t-244 -7q-28 0 -80 1t-109 5t-109 11t-78 17q-42 18 -75 37t-58 42 t-45 54t-34 75q-26 -52 -52 -98q-22 -40 -48 -76t-48 -50q-18 -12 -68 -20t-116 -15t-140 -12t-142 -8t-123 -5t-81 -2q-32 0 -77 1t-91 4t-90 9t-72 18q-56 20 -92 43t-59 55t-36 76t-21 104q-8 48 -10 98t-2 98zM490 502q0 -16 1 -68t5 -109t10 -106t18 -57q8 -6 27 -10 t42 -6t43 -2h32q30 0 85 3t113 9t110 16t76 26q8 6 14 28t8 49t3 51t1 32q0 116 -15 233t-33 231q-22 12 -56 19t-73 11t-75 5t-60 1q-18 0 -53 -1t-72 -4t-69 -11t-46 -20q-12 -12 -20 -57t-11 -98t-4 -100t-1 -65zM1746 732l634 24q6 12 6 28q0 42 -40 63t-94 30t-107 10 t-79 1h-54q-34 0 -71 -3t-70 -8t-51 -15q-28 -16 -48 -58t-26 -72z" />
<glyph unicode="&#x178;" horiz-adv-x="1648" d="M144 1540q96 -10 193 -18t193 -14q0 -94 5 -199t25 -195q10 -48 38 -83t67 -58t84 -34t91 -11q54 0 108 11t104 27q-8 150 -13 296t-19 294q60 2 120 5t120 3q94 0 190 -18q0 -86 3 -172t7 -172q4 -40 7 -81t5 -81q8 -136 26 -271t18 -271q0 -72 -22 -151t-64 -148 t-103 -120t-137 -67q-30 -6 -71 -10t-85 -6t-87 -4t-73 -2q-172 -8 -344 -9t-346 -1q-8 82 -15 162t-19 164q138 6 275 13t275 17q30 2 67 2t76 2t76 5t65 9q12 2 29 7t31 14t24 21t10 30q0 42 -9 93t-13 91q-150 -14 -301 -27t-303 -13q-104 0 -166 59t-90 155 q-6 22 -11 53t-8 64t-5 65t-4 54q-10 132 -15 260t-9 260zM372 1880q0 42 16 80t43 67t64 45t79 16q36 0 66 -16t52 -42t34 -60t12 -68q0 -76 -55 -128t-131 -52q-32 0 -64 12t-58 33t-42 50t-16 63zM852 1876q0 42 15 79t42 66t64 45t81 16q36 0 67 -16t53 -42t34 -59 t12 -67q0 -38 -15 -71t-41 -58t-59 -39t-71 -14q-34 0 -66 12t-58 33t-42 51t-16 64z" />
<glyph unicode="&#x2c6;" horiz-adv-x="1914" d="M562 1270q100 110 199 217t203 211q102 -98 197 -199t193 -205l-188 -8l-198 222l-196 -232z" />
<glyph unicode="&#x2dc;" horiz-adv-x="1914" d="M508 1462q18 12 60 41t88 59t88 53t58 23q28 0 66 -19t79 -41t80 -41t67 -19q20 0 47 12t54 28t51 35t40 31l120 -132q-22 -16 -64 -43t-87 -53t-88 -45t-69 -19q-30 0 -67 21t-75 46t-73 46t-61 21q-22 0 -50 -15t-56 -37t-52 -45t-38 -37z" />
<glyph unicode="&#x2000;" horiz-adv-x="1078" />
<glyph unicode="&#x2001;" horiz-adv-x="2156" />
<glyph unicode="&#x2002;" horiz-adv-x="1078" />
<glyph unicode="&#x2003;" horiz-adv-x="2156" />
<glyph unicode="&#x2004;" horiz-adv-x="718" />
<glyph unicode="&#x2005;" horiz-adv-x="538" />
<glyph unicode="&#x2006;" horiz-adv-x="358" />
<glyph unicode="&#x2007;" horiz-adv-x="358" />
<glyph unicode="&#x2008;" horiz-adv-x="268" />
<glyph unicode="&#x2009;" horiz-adv-x="430" />
<glyph unicode="&#x200a;" horiz-adv-x="118" />
<glyph unicode="&#x2010;" horiz-adv-x="892" d="M62 636l8 162q182 6 372 6h374l16 -168h-770z" />
<glyph unicode="&#x2011;" horiz-adv-x="892" d="M62 636l8 162q182 6 372 6h374l16 -168h-770z" />
<glyph unicode="&#x2012;" horiz-adv-x="892" d="M62 636l8 162q182 6 372 6h374l16 -168h-770z" />
<glyph unicode="&#x2013;" horiz-adv-x="688" d="M62 636l8 162q182 6 372 6h168l16 -168h-564z" />
<glyph unicode="&#x2014;" horiz-adv-x="1282" d="M62 636l8 162q182 6 372 6h762l16 -168h-1158z" />
<glyph unicode="&#x2018;" horiz-adv-x="556" d="M82 1232q0 74 34 143t68 131l218 4q-20 -24 -41 -50t-39 -53t-29 -56t-11 -63q0 -16 2 -24l190 -2q6 -14 13 -34t13 -42t10 -43t4 -35q0 -40 -20 -81t-46 -73h-316q-50 140 -50 278z" />
<glyph unicode="&#x2019;" horiz-adv-x="594" d="M82 1348q0 40 20 81t48 73l316 -4q22 -66 34 -135t12 -139q0 -76 -34 -145t-70 -133h-220q20 24 42 49t40 52t29 57t11 64v22l-190 4q-12 28 -25 75t-13 79z" />
<glyph unicode="&#x201a;" horiz-adv-x="594" d="M82 180q0 40 20 81t48 73l316 -4q22 -66 34 -134t12 -138q0 -76 -34 -146t-70 -134h-220q20 24 42 49t40 52t29 57t11 64v22l-190 4q-12 28 -25 76t-13 78z" />
<glyph unicode="&#x201c;" horiz-adv-x="1030" d="M82 1232q0 74 34 143t68 131l218 4q-20 -24 -41 -50t-39 -53t-29 -56t-11 -63q0 -16 2 -24l190 -2q6 -14 13 -34t13 -42t10 -43t4 -35q0 -40 -20 -81t-46 -73h-316q-50 140 -50 278zM558 1236q0 74 33 144t69 130l216 4q-40 -50 -79 -102t-39 -118q0 -8 1 -14t1 -12 l188 -2q6 -14 13 -34t14 -42t11 -43t4 -35q0 -40 -21 -81t-45 -73h-318q-22 68 -35 138t-13 140z" />
<glyph unicode="&#x201d;" horiz-adv-x="1070" d="M82 1348q0 40 20 81t48 73l316 -4q22 -66 34 -135t12 -139q0 -76 -34 -145t-70 -133h-220q20 24 42 49t40 52t29 57t11 64v22l-190 4q-12 28 -25 75t-13 79zM558 1346q0 40 21 81t45 75l318 -6q22 -64 34 -133t12 -139q0 -76 -33 -145t-73 -133h-216q20 24 41 49t39 52 t29 56t11 63q0 16 -2 24l-188 4q-12 26 -25 74t-13 78z" />
<glyph unicode="&#x201e;" horiz-adv-x="1070" d="M82 180q0 40 20 81t48 73l316 -4q22 -66 34 -134t12 -138q0 -76 -34 -146t-70 -134h-220q20 24 42 49t40 52t29 57t11 64v22l-190 4q-12 28 -25 76t-13 78zM558 178q0 42 21 82t45 74l318 -6q22 -64 34 -132t12 -138q0 -78 -33 -147t-73 -133h-216q20 24 41 49t39 52 t29 56t11 63q0 16 -2 24l-188 4q-6 14 -13 34t-12 41t-9 42t-4 35z" />
<glyph unicode="&#x2022;" horiz-adv-x="580" d="M82 674q0 44 20 79t52 61t71 43t77 27q6 0 11 1t11 1q36 0 68 -20t55 -50t37 -66t14 -68q0 -40 -21 -78t-54 -68t-74 -49t-79 -19t-72 19t-60 48t-41 66t-15 73z" />
<glyph unicode="&#x2026;" horiz-adv-x="1606" d="M82 118q0 24 4 62t22 54q6 6 29 9t50 6t53 4t36 1q22 0 63 -3t57 -17q6 -10 11 -31t7 -46t3 -48t1 -35v-26q0 -16 -2 -32t-6 -31t-10 -21q-8 -6 -32 -11t-52 -8t-53 -4t-37 -1t-29 1t-35 3t-33 7t-21 13q-8 8 -13 29t-8 45t-4 46t-1 34zM634 118q0 24 4 62t22 54 q6 6 29 9t50 6t53 4t36 1q22 0 63 -3t57 -17q6 -10 11 -31t7 -46t3 -48t1 -35v-26q0 -16 -2 -32t-6 -31t-10 -21q-8 -6 -32 -11t-52 -8t-53 -4t-37 -1t-29 1t-35 3t-33 7t-21 13q-8 8 -13 29t-8 45t-4 46t-1 34zM1188 118q0 24 4 62t22 54q6 6 29 9t50 6t53 4t36 1 q22 0 63 -3t57 -17q6 -10 11 -31t7 -46t3 -48t1 -35v-26q0 -16 -2 -32t-6 -31t-10 -21q-8 -6 -32 -11t-52 -8t-53 -4t-37 -1t-29 1t-35 3t-33 7t-21 13q-8 8 -13 29t-8 45t-4 46t-1 34z" />
<glyph unicode="&#x202f;" horiz-adv-x="430" />
<glyph unicode="&#x2039;" horiz-adv-x="576" d="M0 354l498 364l-8 -222l-266 -158l290 -250l-106 -124z" />
<glyph unicode="&#x203a;" horiz-adv-x="598" d="M62 536l96 134l440 -352l-440 -438l-36 254l250 180z" />
<glyph unicode="&#x205f;" horiz-adv-x="538" />
<glyph unicode="&#x20ac;" horiz-adv-x="1624" d="M40 622l226 6l-6 130l-206 -6l-6 174l238 12q2 24 10 76t20 107t29 104t37 67q34 32 97 54t133 36t138 21t114 7q78 0 160 -6t165 -19t163 -33t152 -46l-20 -264q-38 24 -86 39t-99 24t-103 12t-96 3q-34 0 -89 -2t-115 -8t-113 -18t-79 -32q-24 -16 -41 -48t-21 -60 l372 -8l20 -136l-426 -30q-16 -22 -14 -60t2 -62l520 6l8 -130l-492 -56v-14q0 -28 18 -61t48 -43q10 -4 35 -4h31q74 0 149 5t149 11q116 10 231 22t231 24l18 -256q-88 -34 -164 -59t-152 -42t-156 -26t-172 -9q-42 0 -99 2t-115 10t-111 23t-87 41q-22 16 -52 61t-61 97 t-57 100t-38 72l-218 6z" />
<glyph unicode="&#x2122;" horiz-adv-x="3366" d="M1524 -92q10 186 20 370t10 370q0 218 -3 434t-5 434q144 0 281 8t281 22q48 -160 99 -317t109 -313q62 148 141 290t161 282q136 4 269 8t269 6q6 -180 15 -356t17 -356q6 -142 11 -284t9 -282l4 -168v-90q-38 2 -74 6q-30 4 -59 6t-43 2q-78 0 -156 -3t-154 -11 q2 84 3 165t1 165q0 150 -5 298t-9 296l-420 -950q-92 250 -197 491t-219 481l32 -988q-22 0 -45 1t-47 1q-76 0 -149 -6t-147 -12zM82 1532q300 -6 596 -17t594 -19q8 -86 12 -167t4 -165v-140l-386 -20q-8 -116 -12 -230t-4 -228q0 -140 -7 -279t-17 -277q-72 -4 -144 -7 t-144 -3q-26 0 -51 1t-49 1q4 122 7 243t3 241t-6 241t-14 243q-58 -2 -117 -4t-119 -2h-67q-33 0 -67 2q-6 148 -8 294z" />
<glyph unicode="&#xe000;" horiz-adv-x="1330" d="M0 1330h1330v-1330h-1330v1330z" />
<glyph unicode="&#xfb01;" horiz-adv-x="1500" d="M40 608v54q0 70 8 138t12 138l142 4q0 34 2 79t8 93t17 92t27 74q38 72 91 126t133 82q34 14 86 22t108 12t109 6t89 2h31q15 0 31 -2q6 -58 6 -110q0 -58 -5 -113t-13 -113q-30 2 -70 0t-80 -11t-75 -25t-59 -40q-22 -26 -43 -64t-21 -74q0 -16 2 -24l400 -8 q108 4 212 12t208 12q-8 -98 -15 -196t-11 -194q-6 -122 -25 -242t-45 -240l-306 -32q2 154 2 307t-6 309l-378 -32q16 -172 34 -341t28 -341q-126 4 -251 -4t-251 -10l18 662z" />
<glyph unicode="&#xfb02;" horiz-adv-x="1476" d="M40 608v54q0 70 8 138t12 138l142 4q0 84 10 167t40 156t85 131t143 92q26 10 87 17t141 12t169 7t170 4t144 2h91h112q-28 -384 -50 -763t-46 -763l-306 -16v360q0 178 -2 360q-2 122 -11 243t-17 243q-36 0 -81 -3t-90 -12t-86 -24t-67 -39q-22 -22 -43 -63t-21 -75 q0 -16 2 -24l224 -10q4 -32 8 -66t4 -66t-2 -62l-4 -60l-194 -40q16 -172 34 -341t28 -341q-126 4 -251 -4t-251 -10l18 662z" />
<glyph unicode="&#xfb03;" horiz-adv-x="2528" d="M1932 1350q0 38 15 71t40 57t58 38t71 14t75 -15t66 -42t47 -62t18 -73q0 -40 -17 -75t-46 -61t-65 -41t-72 -15q-40 0 -75 18t-61 46t-40 65t-14 75zM1984 974q106 4 209 12t211 12q-10 -106 -16 -210l-12 -208q-8 -122 -27 -242t-43 -240l-306 -32q0 64 1 126t1 126 q0 164 -6 328zM980 608v54q0 70 8 138t12 138q64 2 94 5t40 7q12 4 8 10q4 68 12 130q6 52 16 106t26 84q50 96 117 147t146 74t168 26t185 3h31q15 0 31 -2q6 -58 6 -110q0 -58 -5 -113t-13 -113q-10 2 -32 2q-28 0 -63 -4t-70 -13t-67 -24t-52 -37q-22 -26 -43 -64 t-21 -74q0 -16 2 -24l224 -10q4 -32 8 -66t4 -66t-2 -62l-4 -60l-194 -40q16 -172 34 -341t28 -341q-24 0 -48 1t-46 1q-104 0 -205 -7t-203 -9l18 662zM40 608v54q0 70 8 138t12 138q64 2 94 5t40 7q12 4 8 10q4 68 12 130q6 52 16 106t26 84q50 96 117 147t146 74t168 26 t185 3h31q15 0 31 -2q6 -58 6 -110q0 -58 -5 -113t-13 -113q-10 2 -32 2q-28 0 -63 -4t-70 -13t-67 -24t-52 -37q-22 -26 -43 -64t-21 -74q0 -16 2 -24l224 -10q4 -32 8 -66t4 -66t-2 -62l-4 -60l-194 -40q16 -172 34 -341t28 -341q-24 0 -48 1t-46 1q-104 0 -205 -7 t-203 -9l18 662z" />
<glyph unicode="&#xfb04;" horiz-adv-x="2490" d="M1962 1496l446 42q-16 -194 -31 -386t-25 -386q-10 -176 -21 -349t-21 -349l-306 -16q0 182 1 361v72q0 144 -3 289q-4 182 -16 361t-24 361zM980 608v54q0 70 8 138t12 138q64 2 94 5t40 7q12 4 8 10q4 68 12 130q6 52 16 106t26 84q50 96 117 147t146 74t168 26t185 3 h31q15 0 31 -2q6 -58 6 -110q0 -58 -5 -113t-13 -113q-10 2 -32 2q-28 0 -63 -4t-70 -13t-67 -24t-52 -37q-22 -26 -43 -64t-21 -74q0 -16 2 -24l224 -10q4 -32 8 -66t4 -66t-2 -62l-4 -60l-194 -40q16 -172 34 -341t28 -341q-24 0 -48 1t-46 1q-104 0 -205 -7t-203 -9 l18 662zM40 608v54q0 70 8 138t12 138q64 2 94 5t40 7q12 4 8 10q4 68 12 130q6 52 16 106t26 84q50 96 117 147t146 74t168 26t185 3h31q15 0 31 -2q6 -58 6 -110q0 -58 -5 -113t-13 -113q-10 2 -32 2q-28 0 -63 -4t-70 -13t-67 -24t-52 -37q-22 -26 -43 -64t-21 -74 q0 -16 2 -24l224 -10q4 -32 8 -66t4 -66t-2 -62l-4 -60l-194 -40q16 -172 34 -341t28 -341q-24 0 -48 1t-46 1q-104 0 -205 -7t-203 -9l18 662z" />
</font>
</defs>
</svg>
